<?xml version="1.0" standalone="no"?>
<!DOCTYPE svg PUBLIC "-//W3C//DTD SVG 1.1//EN" "http://www.w3.org/Graphics/SVG/1.1/DTD/svg11.dtd" >
<svg xmlns="http://www.w3.org/2000/svg" xmlns:xlink="http://www.w3.org/1999/xlink" version="1.1">
<metadata>
Created by FontForge 20170731 at Sat May 22 06:39:19 2021
 By Aleksey,,,
Copyright (c) 1981, 2002 Heidelberger Druckmaschinen AG. All rights reserved.
</metadata>
<defs>
<font id="DINCondensed-Bold" horiz-adv-x="757" >
  <font-face
    font-family="DIN Condensed"
    font-weight="700"
    font-stretch="condensed"
    units-per-em="2048"
    panose-1="0 0 5 0 0 0 0 0 0 0"
    ascent="1458"
    descent="-590"
    x-height="1038"
    cap-height="1458"
    bbox="-338 -512 2048 1919"
    underline-thickness="102"
    underline-position="-204"
    unicode-range="U+0020-FB02"
  />
<missing-glyph horiz-adv-x="1024"
d="M0 1434h1024v-1434h-1024v1434zM860 1331h-696l348 -522zM922 195v1044l-349 -522zM860 102l-348 523l-348 -523h696zM102 195l349 522l-349 522v-1044z" />
    <glyph glyph-name=".notdef" horiz-adv-x="1024"
d="M0 1434h1024v-1434h-1024v1434zM860 1331h-696l348 -522zM922 195v1044l-349 -522zM860 102l-348 523l-348 -523h696zM102 195l349 522l-349 522v-1044z" />
    <glyph glyph-name=".null" horiz-adv-x="0"
 />
    <glyph glyph-name="nonmarkingreturn" horiz-adv-x="682"
 />
    <glyph glyph-name="space" unicode=" " horiz-adv-x="380"
 />
    <glyph glyph-name="exclam" unicode="!" horiz-adv-x="491"
d="M115 1458h262l-80 -1098h-102zM141 209h209v-209h-209v209z" />
    <glyph glyph-name="quotedbl" unicode="&#x22;" horiz-adv-x="569"
d="M68 1458h163v-360h-163v360zM338 1458h164v-360h-164v360z" />
    <glyph glyph-name="numbersign" unicode="#" horiz-adv-x="761"
d="M428 440h-172l-59 -440h-140l60 440h-105v123h121l45 332h-102v123h119l59 440h139l-59 -440h172l59 440h140l-60 -440h105v-123h-121l-45 -332h102v-123h-119l-59 -440h-139zM489 895h-172l-45 -332h172z" />
    <glyph glyph-name="dollar" unicode="$" horiz-adv-x="761"
d="M330 1262q-53 -21 -71 -72q-17 -48 -17 -117q0 -76 14 -111q16 -39 74 -67v367zM434 197q66 17 81 71q15 56 15 146q0 52 -3 86q-3 37 -14 57q-12 23 -30 38q-19 16 -49 28v-426zM330 -12q-64 7 -124 37q-57 28 -97 73q-42 47 -64 105q-22 59 -22 127v82h208v-74
q0 -47 23 -88t76 -53v471l-70 28q-134 55 -181 147q-46 91 -46 228q0 157 73 267q73 111 224 132v154h104v-154q68 -7 126 -38q53 -28 96 -77q41 -48 62 -102q21 -55 21 -112v-103h-209v47q0 67 -21 113q-21 47 -75 64v-412l86 -35q72 -28 113 -62t66 -84q25 -49 32 -111
q8 -67 8 -142q0 -88 -15 -163q-15 -74 -51 -131t-94 -91q-60 -36 -145 -43v-172h-104v172z" />
    <glyph glyph-name="percent" unicode="%" horiz-adv-x="720"
d="M193 1137q20 0 35 15q16 16 16 38v104q0 22 -16 38t-35 16q-20 0 -36 -16t-16 -38v-104q0 -22 16 -38q15 -15 36 -15zM193 1014q-81 0 -127 43q-48 45 -48 112v134q0 76 48 122q47 45 127 45q79 0 126 -45q48 -46 48 -122v-134q0 -67 -48 -112q-46 -43 -126 -43zM477 164
q0 -22 16 -38q15 -15 35 -15q21 0 36 15q16 16 16 38v104q0 22 -16 38t-36 16q-19 0 -35 -16t-16 -38v-104zM528 -12q-81 0 -127 43q-47 44 -47 112v133q0 78 47 123t127 45t127 -45t47 -123v-133q0 -68 -47 -112q-46 -43 -127 -43zM543 1458h135l-500 -1458h-135z" />
    <glyph glyph-name="ampersand" unicode="&#x26;" horiz-adv-x="985"
d="M653 111q-64 -64 -128 -93q-66 -30 -150 -30q-61 0 -117 24q-53 23 -96 69q-42 45 -65 106q-23 60 -23 139q0 121 57 211q56 89 143 168q-55 77 -91 160t-36 175q0 55 19 110q18 52 53 90q34 37 88 60t125 23q66 0 119 -22q52 -21 86 -57q35 -37 53 -84q19 -51 19 -101
q0 -102 -64 -196q-62 -92 -149 -171q51 -78 89 -143q42 -72 103 -162l113 154l129 -90l-156 -201l158 -250h-209zM258 336q0 -75 44 -130q43 -54 112 -54q48 0 90 29q40 28 65 59l-200 319q-48 -48 -79 -101q-32 -55 -32 -122zM332 1036q0 -48 22 -101q21 -51 58 -110
q26 26 41 42q23 25 41 53q19 30 30 62q13 37 13 73q0 38 -27 71t-74 33t-76 -38q-28 -37 -28 -85z" />
    <glyph glyph-name="quotesingle" unicode="'" horiz-adv-x="380"
d="M109 1458h163v-360h-163v360z" />
    <glyph glyph-name="parenleft" unicode="(" horiz-adv-x="454"
d="M416 1458q-59 -209 -82 -437q-23 -232 -23 -452q0 -202 28 -401q27 -190 77 -373h-70q-59 85 -107 193q-45 102 -76 213q-30 108 -45 218q-16 117 -16 208q0 102 17 216q17 113 48 220q31 106 77 209q45 100 102 186h70z" />
    <glyph glyph-name="parenright" unicode=")" horiz-adv-x="454"
d="M39 -205q59 209 82 437q22 221 22 452q0 209 -27 401q-27 190 -77 373h70q59 -87 107 -193q45 -100 76 -212q30 -108 45 -218q15 -109 15 -208q0 -108 -16 -216q-17 -115 -48 -221q-30 -103 -77 -208q-46 -104 -102 -187h-70z" />
    <glyph glyph-name="asterisk" unicode="*"
d="M121 1343l201 -122l-9 237h131l-8 -237l201 122l57 -106l-205 -115l205 -112l-57 -109l-201 123l8 -238h-131l9 238l-201 -123l-58 109l205 112l-205 115z" />
    <glyph glyph-name="plus" unicode="+" horiz-adv-x="1228"
d="M532 1036h164v-436h437v-164h-437v-436h-164v436h-436v164h436v436z" />
    <glyph glyph-name="comma" unicode="," horiz-adv-x="380"
d="M86 209h209v-209l-209 -152v361z" />
    <glyph glyph-name="hyphen" unicode="-" horiz-adv-x="796"
d="M90 672h617v-209h-617v209z" />
    <glyph glyph-name="period" unicode="." horiz-adv-x="380"
d="M86 209h209v-209h-209v209z" />
    <glyph glyph-name="slash" unicode="/" horiz-adv-x="454"
d="M281 1470h163l-270 -1482h-164z" />
    <glyph glyph-name="zero" unicode="0" horiz-adv-x="761"
d="M70 1157q0 75 25 131q26 58 69 98q47 44 99 63q57 21 118 21t118 -21q52 -19 99 -63q43 -40 69 -98q25 -56 25 -131v-856q0 -75 -25 -131q-26 -58 -69 -98q-47 -44 -99 -63q-57 -21 -118 -21t-118 21q-52 19 -99 63q-43 40 -69 98q-25 56 -25 131v856zM279 301
q0 -46 28 -75t74 -29t74 29t28 75v856q0 46 -28 75q-29 30 -74 30t-74 -30q-28 -29 -28 -75v-856z" />
    <glyph glyph-name="one" unicode="1" horiz-adv-x="761"
d="M317 1237l-208 -154v222l208 153h209v-1458h-209v1237z" />
    <glyph glyph-name="two" unicode="2" horiz-adv-x="761"
d="M70 197l376 710q28 53 33 93q4 36 4 100q0 16 -2 56q-1 28 -11 52q-9 23 -30 38q-22 16 -59 16q-48 0 -75 -27t-27 -78v-119h-209v115q0 66 24 123q23 54 67 100q42 44 99 69q56 25 123 25q83 0 140 -29q60 -31 97 -81t55 -117q17 -62 17 -139q0 -41 -2 -89
q-1 -32 -8 -69q-6 -35 -20 -65q-17 -37 -39 -80l-308 -592h377v-209h-622v197z" />
    <glyph glyph-name="three" unicode="3" horiz-adv-x="761"
d="M317 844q95 0 130 22q36 22 36 105v188q0 45 -27 74t-75 29q-55 0 -79 -35q-23 -33 -23 -68v-119h-209v121q0 64 24 121t68 98q47 44 100 66q57 24 123 24q87 0 142 -33q56 -34 85 -69q20 -23 36 -50q17 -29 25 -60q10 -38 14 -81q5 -53 5 -118q0 -77 -3 -123
q-3 -49 -16 -79q-13 -31 -39 -54q-23 -20 -71 -49q47 -29 75 -58q27 -28 38 -62q13 -38 14 -86q2 -66 2 -128q0 -72 -3 -119q-3 -48 -9 -79q-6 -33 -16 -54q-11 -24 -27 -47q-40 -58 -100 -95q-62 -38 -158 -38q-51 0 -105 16q-57 17 -100 53q-45 38 -75 97q-29 58 -29 145
v119h209v-109q0 -49 27 -81q27 -31 75 -31t75 31q27 32 27 85v209q0 45 -7 70q-8 28 -25 42q-18 15 -51 20q-35 5 -83 5v185z" />
    <glyph glyph-name="four" unicode="4" horiz-adv-x="761"
d="M434 217h-416v197l301 1044h222l-314 -1044h207v415h209v-415h100v-197h-100v-217h-209v217z" />
    <glyph glyph-name="five" unicode="5" horiz-adv-x="761"
d="M692 1262h-413v-394q29 29 73 48q46 20 101 20q107 0 173 -66t66 -192v-377q0 -75 -25 -131q-26 -58 -69 -98q-47 -44 -99 -63q-57 -21 -118 -21t-118 21q-52 19 -99 63q-43 40 -69 98q-25 56 -25 131v61h209v-53q0 -54 29 -83t77 -29t73 28t25 80v342q0 44 -27 74
q-28 31 -71 31q-25 0 -45 -10t-31 -21t-19 -27l-11 -22h-185v786h598v-196z" />
    <glyph glyph-name="six" unicode="6" horiz-adv-x="761"
d="M379 846l4 -4q12 9 32 13q23 5 56 5q57 0 102 -26q47 -27 74 -68q16 -24 23 -45q9 -28 13 -59q6 -48 7 -94q2 -76 2 -142q0 -56 -2 -118q-1 -37 -7 -78q-4 -30 -14 -54t-24 -47q-40 -66 -109 -104q-68 -37 -155 -37q-86 0 -154 38t-108 103q-17 25 -26 47q-10 24 -14 54
q-6 41 -7 78q-2 62 -2 118q0 54 2 112q2 44 6 75q5 33 12 58q4 12 19 54l274 733h233zM483 571q0 47 -30 76q-31 29 -72 29t-72 -29q-30 -29 -30 -76v-270q0 -47 30 -76q29 -28 72 -28t72 28q30 29 30 76v270z" />
    <glyph glyph-name="seven" unicode="7" horiz-adv-x="761"
d="M483 1262h-229v-168h-184v364h622v-209l-354 -1249h-221z" />
    <glyph glyph-name="eight" unicode="8" horiz-adv-x="761"
d="M483 1159q0 43 -30 73t-72 30t-72 -30t-30 -73v-213q0 -43 30 -73q29 -29 72 -29t72 29q30 30 30 73v213zM70 1077q0 65 4 102q5 45 13 72q10 34 24 56q23 37 34 51q41 53 103 83q59 29 133 29t133 -29q61 -30 102 -83q16 -20 35 -51q14 -22 24 -56q8 -27 13 -72
q4 -37 4 -102q0 -50 -2 -110q-2 -46 -12 -80q-11 -36 -32 -63q-24 -31 -58 -58q36 -28 58 -57t32 -68q11 -39 12 -95q2 -76 2 -138q0 -68 -3 -112t-9 -77q-6 -35 -17 -55q-15 -28 -28 -47q-35 -54 -98 -91q-64 -38 -156 -38t-156 38q-63 37 -98 91q-13 19 -28 47
q-11 20 -17 55q-6 33 -9 77q-3 43 -3 112q0 62 2 138q1 56 12 95q10 39 32 68t58 57q-34 27 -58 58q-21 27 -32 63q-10 34 -12 80q-2 60 -2 110zM483 586q0 42 -30 72t-72 30t-72 -30t-30 -72v-287q0 -43 30 -73q29 -29 72 -29t72 29q30 30 30 73v287z" />
    <glyph glyph-name="nine" unicode="9" horiz-adv-x="761"
d="M383 612l-4 4q-12 -9 -32 -13q-23 -5 -56 -5q-56 0 -103 27q-46 27 -73 67q-16 23 -23 44q-9 30 -13 61q-6 49 -7 93q-2 76 -2 142q0 56 2 118q1 37 7 78q4 30 14 54t24 47q41 68 109 105q66 36 155 36q87 0 154 -37t108 -104q12 -19 25 -47q10 -22 15 -54q6 -41 7 -78
q2 -62 2 -118q0 -53 -2 -111q-1 -36 -7 -76q-5 -33 -12 -58t-18 -54l-274 -733h-234zM279 887q0 -47 30 -76q31 -29 72 -29t72 29q30 29 30 76v270q0 47 -30 76q-31 29 -72 29t-72 -29q-30 -29 -30 -76v-270z" />
    <glyph glyph-name="colon" unicode=":" horiz-adv-x="380"
d="M86 209h209v-209h-209v209zM86 674h209v-209h-209v209z" />
    <glyph glyph-name="semicolon" unicode=";" horiz-adv-x="380"
d="M86 209h209v-209l-209 -152v361zM86 674h209v-209h-209v209z" />
    <glyph glyph-name="less" unicode="&#x3c;" horiz-adv-x="1228"
d="M1133 889l-814 -371l814 -371v-163l-1037 473v123l1037 473v-164z" />
    <glyph glyph-name="equal" unicode="=" horiz-adv-x="1228"
d="M96 805h1037v-164h-1037v164zM96 395h1037v-164h-1037v164z" />
    <glyph glyph-name="greater" unicode="&#x3e;" horiz-adv-x="1228"
d="M96 147l813 371l-813 371v164l1037 -473v-123l-1037 -473v163z" />
    <glyph glyph-name="question" unicode="?"
d="M66 1159q0 64 24 121q24 56 68 99q46 44 100 67q57 24 123 24q75 0 138 -30t104 -86q11 -15 33 -54q15 -27 22 -52q8 -29 11 -62q3 -34 3 -82q0 -65 -1 -89q-2 -44 -5 -63q-5 -29 -10 -46q-6 -18 -17 -36l-141 -241q-10 -16 -24 -50q-11 -27 -11 -55v-164h-209v191
q0 45 15 86q16 44 37 80l131 213q17 27 21 57q5 33 5 62v108q0 45 -29 74q-31 31 -73 31q-37 0 -72 -27t-35 -78v-119h-208v121zM274 209h209v-209h-209v209z" />
    <glyph glyph-name="at" unicode="@" horiz-adv-x="1638"
d="M1051 840q0 72 -39 121t-113 49q-67 0 -125 -38q-56 -37 -99 -98q-44 -63 -67 -130q-24 -70 -24 -134q0 -86 46 -132t124 -46q56 0 111 41q56 42 96 101q41 60 65 133q25 75 25 133zM1130 559q-10 -28 -15 -53q-5 -27 -5 -39q0 -27 10 -43t37 -16q48 0 98 41
q49 41 90 105q39 62 65 142t26 152q0 106 -45 196q-46 92 -121 155q-76 64 -175 100t-208 36q-129 0 -242 -51q-112 -51 -196 -135q-85 -85 -133 -196t-48 -230q0 -125 48 -235q47 -108 134 -190t199 -128q115 -47 248 -47q78 0 147 17q77 19 140 46q66 28 120 69
q55 41 91 83h157q-49 -82 -121 -148q-68 -63 -160 -110q-86 -45 -187 -69q-95 -23 -203 -23q-161 0 -300 56t-245 156q-105 99 -165 236q-60 136 -60 297q0 156 61 288q61 133 167 234q105 101 247 158q141 57 299 57q143 0 272 -45t226 -127t154 -193q56 -109 56 -247
q0 -129 -48 -234q-49 -107 -120 -181t-152 -116t-147 -42q-70 0 -110 31q-42 32 -49 98h-4q-23 -24 -47 -47q-27 -26 -53 -41q-32 -19 -66 -30t-84 -11q-66 0 -120 24q-53 24 -93 68q-40 45 -60 99t-20 120q0 99 35 201t97 180q66 83 150 130q89 50 197 50q71 0 138 -38
q68 -39 98 -122h4l41 125h129z" />
    <glyph glyph-name="A" unicode="A" horiz-adv-x="833"
d="M418 1038h-4l-103 -528h209zM330 1458h174l325 -1458h-208l-62 313h-285l-61 -313h-209z" />
    <glyph glyph-name="B" unicode="B" horiz-adv-x="872"
d="M98 1458h305q98 0 171 -31q71 -30 116 -81t65 -118q19 -64 19 -138v-54q0 -60 -9 -100t-28 -72q-18 -30 -45 -54q-25 -22 -61 -44q74 -35 108 -103q35 -70 35 -184v-82q0 -193 -93 -295t-298 -102h-285v1458zM307 209h90q64 0 100 18q35 18 54 52q18 32 22 77q5 50 5 99
t-7 96q-6 43 -25 69q-20 27 -54 42q-32 14 -93 14h-92v-467zM307 860h94q105 0 141 52t36 153q0 98 -40 147q-41 50 -145 50h-86v-402z" />
    <glyph glyph-name="C" unicode="C" horiz-adv-x="833"
d="M762 326q0 -66 -26 -129q-26 -62 -70 -108q-45 -47 -106 -74q-60 -27 -130 -27q-61 0 -121 16q-62 17 -110 56q-50 41 -81 106q-32 67 -32 166v803q0 69 25 133q24 61 69 106q46 46 108 71t138 25q73 0 133 -25q62 -26 107 -72t70 -110q26 -66 26 -141v-82h-209v70
q0 61 -35 107q-34 45 -94 45q-77 0 -103 -49t-26 -121v-746q0 -61 28 -106q27 -43 99 -43q22 0 44 7q25 8 43 23q20 17 32 45t12 72v72h209v-90z" />
    <glyph glyph-name="D" unicode="D" horiz-adv-x="872"
d="M98 1458h310q178 0 272 -99q94 -98 94 -278v-682q0 -205 -99 -302q-98 -97 -286 -97h-291v1458zM307 197h96q87 0 125 44q37 43 37 138v702q0 86 -35 133q-36 48 -127 48h-96v-1065z" />
    <glyph glyph-name="E" unicode="E"
d="M98 1458h623v-196h-414v-428h361v-197h-361v-428h414v-209h-623v1458z" />
    <glyph glyph-name="F" unicode="F"
d="M98 1458h623v-196h-414v-443h361v-196h-361v-623h-209v1458z" />
    <glyph glyph-name="G" unicode="G" horiz-adv-x="872"
d="M86 1114q0 86 31 156q29 65 81 111q52 45 112 67q62 22 126 22t126 -22t113 -67q52 -46 81 -111q30 -68 30 -156v-74h-208v74q0 76 -42 112t-100 36q-57 0 -99 -36t-42 -112v-770q0 -76 42 -112q41 -35 99 -35q59 0 100 35q42 36 42 112v274h-166v185h374v-459
q0 -91 -30 -157q-29 -65 -81 -110q-51 -45 -113 -67t-126 -22t-126 22q-60 22 -112 67t-81 110q-31 68 -31 157v770z" />
    <glyph glyph-name="H" unicode="H" horiz-adv-x="872"
d="M98 1458h209v-624h258v624h209v-1458h-209v649h-258v-649h-209v1458z" />
    <glyph glyph-name="I" unicode="I" horiz-adv-x="417"
d="M104 1458h209v-1458h-209v1458z" />
    <glyph glyph-name="J" unicode="J" horiz-adv-x="681"
d="M584 344q0 -69 -25 -136q-24 -64 -71 -114q-48 -51 -111 -78q-65 -28 -150 -28q-100 0 -167 44q-66 44 -105 87l164 131q24 -24 52 -38q30 -15 62 -15q21 0 43 7q29 9 47 26q21 20 36 54q16 37 16 89v1085h209v-1114z" />
    <glyph glyph-name="K" unicode="K" horiz-adv-x="872"
d="M98 1458h209v-665h4l305 665h209l-284 -584l338 -874h-222l-237 647l-113 -211v-436h-209v1458z" />
    <glyph glyph-name="L" unicode="L"
d="M98 1458h209v-1249h414v-209h-623v1458z" />
    <glyph glyph-name="M" unicode="M" horiz-adv-x="1138"
d="M98 1458h201l268 -772h4l267 772h202v-1458h-209v887h-4l-206 -627h-105l-205 627h-4v-887h-209v1458z" />
    <glyph glyph-name="N" unicode="N" horiz-adv-x="909"
d="M90 1458h201l315 -878h4v878h209v-1458h-196l-320 877h-4v-877h-209v1458z" />
    <glyph glyph-name="O" unicode="O" horiz-adv-x="872"
d="M86 1114q0 86 31 156q29 65 81 111q52 45 112 67q62 22 126 22t126 -22t113 -67q52 -46 81 -111q30 -68 30 -156v-770q0 -91 -30 -157q-29 -65 -81 -110q-51 -45 -113 -67t-126 -22t-126 22q-60 22 -112 67t-81 110q-31 68 -31 157v770zM295 344q0 -76 42 -112
q41 -35 99 -35q59 0 100 35q42 36 42 112v770q0 76 -42 112t-100 36q-57 0 -99 -36t-42 -112v-770z" />
    <glyph glyph-name="P" unicode="P" horiz-adv-x="833"
d="M98 1458h314q86 0 151 -22q66 -23 119 -80q53 -58 74 -134q20 -73 20 -208q0 -102 -11 -165q-12 -71 -48 -128q-43 -72 -115 -112q-71 -40 -188 -40h-107v-569h-209v1458zM307 766h101q64 0 98 18q33 17 51 51q17 33 20 76q3 45 3 101q0 50 -3 97q-3 43 -19 80
q-14 33 -48 53t-94 20h-109v-496z" />
    <glyph glyph-name="Q" unicode="Q" horiz-adv-x="872"
d="M295 344q0 -76 42 -112q41 -35 99 -35q26 0 45 8l-94 76l107 127l84 -68v4v770q0 76 -42 112t-100 36q-57 0 -99 -36t-42 -112v-770zM86 1114q0 86 31 156q29 65 81 111q52 45 112 67q62 22 126 22t126 -22t113 -67q52 -46 81 -111q30 -68 30 -156v-770q0 -86 -30 -149
l129 -105l-107 -127l-123 100q-47 -39 -103 -57q-57 -18 -116 -18q-64 0 -126 22q-60 22 -112 67t-81 110q-31 68 -31 157v770z" />
    <glyph glyph-name="R" unicode="R" horiz-adv-x="872"
d="M307 807h119q55 0 88 15q31 14 50 44q18 28 24 71q6 42 6 97q0 56 -6 98q-6 40 -26 71q-19 29 -54 44t-92 15h-109v-455zM98 1458h336q369 0 369 -428q0 -128 -40 -218q-40 -91 -140 -146l225 -666h-221l-195 623h-125v-623h-209v1458z" />
    <glyph glyph-name="S" unicode="S" horiz-adv-x="831"
d="M774 1038h-209v47q0 72 -34 124q-35 53 -113 53q-43 0 -71 -17q-29 -17 -43 -42q-15 -26 -21 -59q-7 -40 -7 -71q0 -33 4 -73q3 -30 15 -51q12 -22 36 -38q21 -15 64 -32l160 -64q72 -28 113 -62t66 -84q25 -49 32 -111q8 -67 8 -142q0 -92 -18 -171q-17 -75 -61 -135
q-42 -57 -111 -90q-67 -32 -170 -32q-78 0 -142 26q-66 27 -112 73q-49 49 -75 110q-28 65 -28 137v78h209v-66q0 -57 34 -103t114 -46q53 0 83 15q29 15 45 43q14 25 19 69q4 36 4 90q0 61 -4 94q-5 38 -17 59q-13 22 -37 37q-22 13 -63 31l-149 61q-134 55 -181 147
q-46 91 -46 228q0 84 22 156q22 73 67 127t111 85t158 31q79 0 142 -28t111 -76q47 -47 71 -105q24 -59 24 -120v-103z" />
    <glyph glyph-name="T" unicode="T" horiz-adv-x="679"
d="M236 1262h-242v196h692v-196h-242v-1262h-208v1262z" />
    <glyph glyph-name="U" unicode="U" horiz-adv-x="872"
d="M774 328q0 -74 -26 -133q-27 -62 -73 -108t-108 -73q-59 -26 -131 -26t-131 26q-61 27 -107 73t-73 108t-27 133v1130h209v-1110q0 -78 37 -115q36 -36 92 -36t92 36q37 37 37 115v1110h209v-1130z" />
    <glyph glyph-name="V" unicode="V" horiz-adv-x="833"
d="M508 0h-184l-297 1458h221l166 -1018h4l168 1018h221z" />
    <glyph glyph-name="W" unicode="W" horiz-adv-x="1214"
d="M965 0h-197l-160 946h-4l-158 -946h-196l-217 1458h221l104 -926h4l164 926h160l170 -948h4l101 948h221z" />
    <glyph glyph-name="X" unicode="X" horiz-adv-x="796"
d="M291 764l-273 694h222l157 -432l160 432h221l-278 -694l301 -764h-221l-183 492l-180 -492h-221z" />
    <glyph glyph-name="Y" unicode="Y" horiz-adv-x="794"
d="M293 616l-287 842h221l168 -579h4l168 579h221l-286 -842v-616h-209v616z" />
    <glyph glyph-name="Z" unicode="Z" horiz-adv-x="681"
d="M31 184l393 1078h-373v196h600v-166l-401 -1095h401v-197h-620v184z" />
    <glyph glyph-name="bracketleft" unicode="[" horiz-adv-x="454"
d="M438 1335h-135v-1417h135v-123h-319v1663h319v-123z" />
    <glyph glyph-name="backslash" unicode="\" horiz-adv-x="454"
d="M444 -12h-163l-271 1482h164z" />
    <glyph glyph-name="bracketright" unicode="]" horiz-adv-x="454"
d="M16 -82h136v1417h-136v123h320v-1663h-320v123z" />
    <glyph glyph-name="asciicircum" unicode="^" horiz-adv-x="1228"
d="M547 1458h135l444 -878h-163l-349 694l-348 -694h-164z" />
    <glyph glyph-name="underscore" unicode="_" horiz-adv-x="1024"
d="M0 -154h1024v-102h-1024v102z" />
    <glyph glyph-name="grave" unicode="`" horiz-adv-x="380"
d="M324 1176h-136l-270 288h221z" />
    <glyph glyph-name="a" unicode="a"
d="M481 106h-4q-41 -58 -83 -88t-118 -30q-39 0 -75 11q-40 12 -73 41q-34 29 -55 84q-22 57 -22 140q0 89 15 155q15 67 52 110q39 45 101 66q63 21 162 21q15 0 45 -2q3 0 22.5 -1.5l32.5 -2.5v109q0 54 -22 88q-23 35 -82 35q-41 0 -75 -27q-33 -26 -44 -78h-203
q11 142 95 226q39 39 98 64q57 24 129 24q66 0 123 -21q58 -21 99 -61q43 -41 67 -103q24 -61 24 -143v-723h-209v106zM481 446q-40 7 -57 7q-67 0 -116 -32q-48 -31 -48 -116q0 -58 29 -96q28 -37 80 -37q53 0 83 35q29 33 29 98v141z" />
    <glyph glyph-name="b" unicode="b" horiz-adv-x="796"
d="M86 1458h209v-514h4q35 52 83 79q50 28 110 28q75 0 117 -27q41 -27 69 -68q21 -33 27 -86q6 -52 6 -165v-396q0 -76 -9 -137q-7 -50 -26 -86q-52 -98 -182 -98q-78 0 -119 30q-39 29 -80 76v-94h-209v1458zM502 719q0 47 -22 86q-21 37 -81 37q-44 0 -74 -32t-30 -81
v-403q0 -57 29 -94q28 -35 75 -35q54 0 78 39q25 41 25 102v381z" />
    <glyph glyph-name="c" unicode="c"
d="M307 299q0 -48 28 -76q26 -26 75 -26q59 0 78 34t24 70h209q0 -63 -22 -123q-21 -57 -62 -98q-41 -44 -98 -68t-129 -24q-96 0 -166 41t-107 108q-24 43 -31 94q-8 56 -8 117v342q0 61 8 117q7 51 31 94q38 69 107 109q70 41 166 41q69 0 130 -25q55 -22 98 -69
q40 -43 61 -105q22 -64 22 -133h-209q0 62 -28 93q-27 30 -74 30q-48 0 -75 -30q-28 -31 -28 -89v-424z" />
    <glyph glyph-name="d" unicode="d" horiz-adv-x="796"
d="M295 338q0 -63 24 -102t78 -39q48 0 76 35q29 37 29 94v403q0 49 -30 81t-75 32q-60 0 -81 -37t-21 -86v-381zM502 94q-21 -22 -39 -42q-16 -17 -41 -34q-21 -14 -51 -22t-68 -8q-130 0 -182 98q-20 38 -27 86q-8 54 -8 137v396q0 113 6 165q6 53 27 86q28 42 68 68
q42 27 118 27q60 0 110 -28q48 -27 83 -79h4v514h209v-1458h-209v94z" />
    <glyph glyph-name="e" unicode="e"
d="M276 440v-141q0 -48 28 -76q26 -26 75 -26q60 0 79 34q18 32 23 70h209q0 -66 -21 -123q-20 -55 -63 -98q-41 -44 -98 -68t-129 -24q-96 0 -166 41t-107 108q-22 40 -30 94q-8 56 -8 117v342q0 61 8 117q8 54 30 94q38 69 107 109q70 41 166 41q69 0 130 -25
q55 -22 98 -69q42 -45 62 -103q21 -60 21 -127v-287h-414zM276 604h205v119q0 59 -27 89t-75 30t-75 -30q-28 -31 -28 -89v-119z" />
    <glyph glyph-name="f" unicode="f" horiz-adv-x="454"
d="M113 874h-103v164h103v142q0 77 22 128q21 49 61 86q36 34 86 49q48 15 99 15h96v-196h-94q-61 0 -61 -72v-152h155v-164h-155v-874h-209v874z" />
    <glyph glyph-name="g" unicode="g" horiz-adv-x="796"
d="M295 -121q1 -34 30 -69q27 -33 81 -33q50 0 73 32t23 80v205h-4q-35 -52 -83 -79t-112 -27q-130 0 -182 98q-20 38 -27 86q-8 54 -8 137v396q0 113 6 165q6 53 27 86q28 42 68 68q42 27 118 27q35 0 67 -9q29 -8 50 -22q25 -17 41 -34q18 -20 39 -42v94h209v-1165
q0 -53 -18 -107q-19 -58 -56 -99q-40 -45 -98 -71q-62 -28 -142 -28q-47 0 -98 15q-52 15 -95 51q-45 37 -76 96q-32 60 -42 149h209zM295 319q0 -49 21 -86q20 -36 81 -36q45 0 75 31q30 32 30 81v404q0 56 -29 93q-29 36 -76 36q-54 0 -78 -39t-24 -103v-381z" />
    <glyph glyph-name="h" unicode="h" horiz-adv-x="796"
d="M86 1458h209v-520h4q33 50 79 81q47 32 118 32q37 0 77 -14t70 -44q31 -31 49 -79q19 -51 19 -117v-797h-209v719q0 57 -27 90t-76 33q-60 0 -82 -37t-22 -107v-698h-209v1458z" />
    <glyph glyph-name="i" unicode="i" horiz-adv-x="380"
d="M86 1038h209v-1038h-209v1038zM86 1458h209v-209h-209v209z" />
    <glyph glyph-name="j" unicode="j" horiz-adv-x="380"
d="M86 1038h209v-1149q0 -153 -96 -231t-244 -78v197q35 0 62 8q25 7 41 30t22 58q6 38 6 94v1071zM86 1458h209v-209h-209v209z" />
    <glyph glyph-name="k" unicode="k" horiz-adv-x="796"
d="M86 1458h209v-872h4l252 452h209l-248 -422l299 -616h-227l-189 449l-100 -158v-291h-209v1458z" />
    <glyph glyph-name="l" unicode="l" horiz-adv-x="380"
d="M74 1458h209v-1165q0 -60 21 -81q22 -22 81 -28v-196q-76 0 -130 11q-58 12 -98 43q-41 32 -62 89t-21 148v1179z" />
    <glyph glyph-name="m" unicode="m" horiz-adv-x="1212"
d="M86 1038h209v-100h4q33 50 79 81q47 32 118 32q67 0 112 -33q46 -34 74 -72q39 44 86 74q48 31 131 31q38 0 80 -14q40 -13 74 -44q31 -28 53 -79q20 -46 20 -117v-797h-208v719q0 57 -27 90t-76 33q-60 0 -82 -37t-22 -107v-698h-209v719q0 57 -27 90t-76 33
q-60 0 -82 -37t-22 -107v-698h-209v1038z" />
    <glyph glyph-name="n" unicode="n" horiz-adv-x="796"
d="M86 1038h209v-100h4q33 50 79 81q47 32 118 32q37 0 77 -14t70 -44q31 -31 49 -79q19 -51 19 -117v-797h-209v719q0 57 -27 90t-76 33q-60 0 -82 -37t-22 -107v-698h-209v1038z" />
    <glyph glyph-name="o" unicode="o"
d="M68 690q0 61 8 117q8 54 30 94q38 69 107 109q70 41 166 41t166 -41q67 -40 106 -109q24 -43 31 -94q8 -56 8 -117v-342q0 -61 -8 -117q-7 -51 -31 -94q-38 -68 -106 -108q-70 -41 -166 -41t-166 41t-107 108q-22 40 -30 94q-8 56 -8 117v342zM276 315q0 -58 28 -89
q26 -29 75 -29t75 29q27 30 27 89v408q0 59 -27 89t-75 30t-75 -30q-28 -31 -28 -89v-408z" />
    <glyph glyph-name="p" unicode="p" horiz-adv-x="796"
d="M86 1038h209v-94q41 47 80 76q42 31 119 31q130 0 182 -99q19 -36 26 -86q9 -61 9 -137v-395q0 -114 -6 -166q-6 -53 -27 -86q-28 -41 -69 -68q-40 -26 -117 -26q-62 0 -110 27t-83 79h-4v-514h-209v1458zM502 700q0 62 -25 103q-24 39 -78 39q-47 0 -75 -36
q-29 -37 -29 -93v-404q0 -49 30 -81q30 -31 74 -31q61 0 81 36q22 39 22 86v381z" />
    <glyph glyph-name="q" unicode="q" horiz-adv-x="796"
d="M502 94h-4q-35 -52 -83 -79t-110 -27q-78 0 -118 26q-40 25 -68 68q-21 33 -27 86t-6 166v395q0 83 8 137q7 48 27 86q53 99 182 99q34 0 68 -9q30 -8 51 -22q25 -17 41 -34q18 -20 39 -42v94h209v-1458h-209v514zM295 319q0 -49 21 -86q20 -36 81 -36q45 0 75 31
q30 32 30 81v404q0 56 -29 93q-29 36 -76 36q-54 0 -78 -39t-24 -103v-381z" />
    <glyph glyph-name="r" unicode="r" horiz-adv-x="569"
d="M86 1038h209v-110q62 56 125 90q62 33 151 33v-222q-32 13 -63 13q-34 0 -71 -12q-41 -13 -69 -37q-33 -28 -53 -70q-20 -41 -20 -107v-616h-209v1038z" />
    <glyph glyph-name="s" unicode="s" horiz-adv-x="720"
d="M465 748q-1 51 -34 79q-32 27 -73 27q-48 0 -75 -32t-27 -72q0 -32 14 -57q16 -28 74 -50l123 -49q118 -45 161 -123q44 -79 44 -170q0 -65 -24 -122q-23 -55 -64 -99q-40 -43 -99 -68q-57 -24 -125 -24q-63 0 -116 20q-56 21 -98 60q-41 38 -68 97q-28 60 -29 136h197
q6 -44 29 -80q24 -37 83 -37q45 0 81 30t36 83q0 45 -22 74q-23 31 -82 53l-101 37q-97 37 -154 109t-57 178q0 62 25 121q23 55 67 97q41 39 97 62q57 23 119 23q63 0 117 -24q58 -26 94 -63q38 -40 61 -97q23 -58 23 -119h-197z" />
    <glyph glyph-name="t" unicode="t" horiz-adv-x="417"
d="M86 1354h209v-316h129v-163h-129v-576q0 -37 7 -57t23 -31q15 -10 40 -12q32 -2 59 -2v-197h-86q-71 0 -120 23t-77 57t-42 79q-13 42 -13 85v630h-104v164h104v316z" />
    <glyph glyph-name="u" unicode="u" horiz-adv-x="796"
d="M711 0h-209v100h-4q-33 -50 -79 -81t-118 -31q-40 0 -78 13t-69 44q-33 33 -50 79q-18 48 -18 118v796h209v-719q0 -57 27 -90q26 -32 75 -32q60 0 82 36q23 38 23 107v698h209v-1038z" />
    <glyph glyph-name="v" unicode="v" horiz-adv-x="720"
d="M453 0h-185l-270 1038h221l139 -663h4l140 663h221z" />
    <glyph glyph-name="w" unicode="w" horiz-adv-x="1097"
d="M850 0h-184l-115 616h-4l-115 -616h-184l-246 1038h221l127 -645h4l117 645h164l110 -645h5l124 645h222z" />
    <glyph glyph-name="x" unicode="x" horiz-adv-x="679"
d="M233 530l-243 508h221l129 -295l129 295h221l-248 -508l260 -530h-221l-141 317l-141 -317h-222z" />
    <glyph glyph-name="y" unicode="y" horiz-adv-x="720"
d="M219 1038l143 -647h5l141 647h215l-299 -1218q-17 -71 -46 -116q-31 -47 -69 -74q-39 -27 -83 -39q-40 -11 -91 -11h-57v197h47q29 0 53 8q21 7 40 36q16 24 32 82q15 54 33 144l-285 991h221z" />
    <glyph glyph-name="z" unicode="z" horiz-adv-x="645"
d="M35 166l338 688h-312v184h549v-166l-338 -675h338v-197h-575v166z" />
    <glyph glyph-name="braceleft" unicode="{" horiz-adv-x="454"
d="M6 690q56 0 94 65q37 64 37 165v311q0 108 60 168q59 59 141 59h111v-123h-37q-49 0 -70 -36q-20 -34 -20 -99v-309q0 -68 -15 -116q-16 -52 -35 -79q-22 -32 -46 -47q-23 -15 -46 -20v-4q19 -4 46 -20q23 -14 46 -46q19 -27 35 -80q15 -50 15 -119v-305q0 -67 20 -101
q21 -36 70 -36h37v-123h-111q-81 0 -141 60t-60 168v309q0 105 -37 170t-94 65v123z" />
    <glyph glyph-name="bar" unicode="|" horiz-adv-x="454"
d="M145 1536h164v-2048h-164v2048z" />
    <glyph glyph-name="braceright" unicode="}" horiz-adv-x="454"
d="M449 567q-58 0 -95 -65t-37 -170v-309q0 -109 -59 -168q-60 -60 -141 -60h-111v123h37q49 0 70 36q20 34 20 101v305q0 73 14 119q16 53 35 80q22 32 45 46q25 16 47 20v4q-25 5 -47 20q-23 16 -45 47q-19 27 -35 79q-14 45 -14 116v309q0 65 -20 99q-21 36 -70 36h-37
v123h111q82 0 141 -59t59 -168v-311q0 -101 37 -165q38 -65 95 -65v-123z" />
    <glyph glyph-name="asciitilde" unicode="~" horiz-adv-x="1228"
d="M1087 543q-20 -40 -39 -65q-22 -29 -55 -57q-31 -27 -70 -41q-41 -15 -92 -15q-54 0 -110 19q-57 20 -117 48q-22 9 -60.5 26t-51.5 23q-58 25 -97 25q-31 0 -56 -13q-28 -15 -47 -34q-26 -26 -40 -46q-30 -43 -37 -53l-74 132q17 33 40 64q22 29 55 57q31 27 70 41
q43 16 91 16q53 0 111 -20q57 -20 117 -48q22 -9 60.5 -26t51.5 -23q58 -25 97 -25q30 0 56 14q30 16 47 33q24 24 40 48l37 53z" />
    <glyph glyph-name="uni00A0" unicode="&#xa0;" horiz-adv-x="380"
 />
    <glyph glyph-name="exclamdown" unicode="&#xa1;" horiz-adv-x="491"
d="M195 678h102l80 -1098h-262zM141 1038h209v-209h-209v209z" />
    <glyph glyph-name="cent" unicode="&#xa2;" horiz-adv-x="761"
d="M336 842q-24 -7 -41 -39q-16 -28 -16 -72v-440q0 -73 57 -94v645zM336 -12q-77 6 -136 45t-91 98q-24 43 -31 94q-8 56 -8 117v352q0 61 8 117q7 51 31 94q33 61 91 99q59 40 136 47v153h84v-153q128 -11 200 -102t72 -230h-209q0 54 -16 83t-47 40v-645q35 12 47 42
q11 29 16 62h209q0 -67 -21 -126q-20 -56 -63 -99q-33 -36 -82 -61q-43 -22 -106 -27v-172h-84v172z" />
    <glyph glyph-name="sterling" unicode="&#xa3;" horiz-adv-x="761"
d="M27 756h112q-38 71 -58 139q-20 69 -20 172q0 76 19 154q18 75 58 129t104 88q61 32 151 32q54 0 105 -19q54 -20 97 -60q45 -42 73 -104t28 -150v-93h-196v82q0 56 -24 102t-89 46q-71 0 -100 -62q-29 -63 -29 -147q0 -79 21 -162q20 -78 45 -147h237v-146h-190
q4 -11 25 -76q12 -38 12 -104q0 -58 -19 -117q-17 -52 -47 -106q43 -6 80 -13q50 -10 88 -10q34 0 67 11q31 10 68 55l139 -141q-47 -67 -101 -94t-126 -27q-29 0 -74 6q-68 9 -94 13q-33 5 -97 13q-56 7 -83 7q-45 0 -93 -12q-54 -13 -69 -21v176q18 11 56 24q36 12 75 17
q25 37 41 85q14 43 14 93q0 46 -12 106q-11 57 -35 115h-159v146z" />
    <glyph glyph-name="currency" unicode="&#xa4;" horiz-adv-x="761"
d="M94 524q-32 33 -52 89q-19 53 -19 116q0 62 18 116q18 55 51 89l-84 86l84 84l84 -86q35 31 89 50q53 19 116 19q62 0 116 -18q53 -18 91 -51l84 86l82 -84l-84 -84q33 -38 51 -91q18 -54 18 -116q0 -66 -19 -117q-20 -53 -50 -88l84 -84l-84 -84l-84 84q-34 -33 -89 -51
q-54 -18 -116 -18q-63 0 -116 19q-56 20 -89 52l-84 -86l-84 82zM158 729q0 -49 17 -87q18 -41 48 -71t71 -48q38 -17 87 -17q48 0 86 17q43 19 72 48q30 30 48 71q17 38 17 87q0 48 -17 86q-19 43 -48 72t-72 48q-38 17 -86 17q-49 0 -87 -17q-41 -18 -71 -48
q-29 -29 -48 -72q-17 -38 -17 -86z" />
    <glyph glyph-name="yen" unicode="&#xa5;" horiz-adv-x="761"
d="M283 352h-234v135h234v101h-234v135h201l-242 735h209l162 -579h4l162 579h209l-242 -735h201v-135h-234v-101h234v-135h-234v-352h-196v352z" />
    <glyph glyph-name="brokenbar" unicode="&#xa6;" horiz-adv-x="454"
d="M145 358h164v-716h-164v716zM145 1382h164v-716h-164v716z" />
    <glyph glyph-name="section" unicode="&#xa7;"
d="M666 1096h-174v86q0 46 -26 86q-26 39 -77 39q-65 0 -86 -44q-20 -41 -20 -106q0 -28 2 -60q1 -23 12 -41q9 -16 29 -34q15 -14 53 -37l199 -129q35 -22 59 -48q22 -23 34 -58q10 -29 15 -87q4 -47 4 -133q0 -79 -4 -123q-5 -52 -22 -88q-16 -34 -55 -63q-35 -26 -97 -55
q54 -29 82 -51q31 -25 46 -58q16 -35 20 -76q6 -58 6 -104q0 -84 -11 -137q-11 -51 -41 -97q-34 -50 -99 -80t-134 -30q-82 0 -140 29q-55 27 -90 72q-33 42 -49 95q-14 48 -14 97v86h174v-84q0 -52 32 -92q32 -39 81 -39q63 0 90 39t27 120q0 32 -4 64q-3 26 -10 42
q-8 19 -19 30q-12 12 -33 24l-242 148q-38 22 -64 52q-22 25 -35 66q-11 35 -14 91q-3 51 -3 122q0 84 8 148q7 57 29 98q20 38 58 63q36 24 93 42q-52 24 -80 51q-30 28 -44 58t-19 72q-4 36 -4 93q0 80 22 139q23 60 60 99q36 37 90 58q50 19 108 19q53 0 100 -17
q51 -19 89 -52q38 -34 63 -88q25 -55 25 -123v-94zM276 436q0 -46 30 -77t73 -31q42 0 72 31t30 77v203q0 45 -30 77t-72 32q-43 0 -73 -32t-30 -77v-203z" />
    <glyph glyph-name="dieresis" unicode="&#xa8;" horiz-adv-x="380"
d="M-68 1409h185v-209h-185v209zM264 1409h185v-209h-185v209z" />
    <glyph glyph-name="copyright" unicode="&#xa9;" horiz-adv-x="1638"
d="M1208 588q-15 -73 -47 -131q-33 -60 -81 -102t-107 -64q-61 -23 -127 -23q-100 0 -181 36q-84 37 -139 98q-59 65 -88 147q-30 84 -30 180q0 102 29 185q30 86 85 147q56 61 135 96q81 35 183 35q69 0 132 -21t111 -59q49 -39 82 -97q32 -57 43 -132h-135q-7 35 -29 68
t-51 56q-27 21 -69 36q-40 14 -82 14q-67 0 -121 -26q-53 -25 -90 -69q-37 -43 -57 -103q-19 -57 -19 -126q0 -66 20 -123q20 -56 59 -105q38 -47 92 -74q56 -28 120 -28q85 0 150 54q62 51 77 131h135zM1413 729q0 124 -47 236q-45 107 -127 192q-78 81 -188 130
q-108 48 -232 48q-123 0 -231 -48q-111 -50 -189 -130q-82 -85 -127 -192q-47 -112 -47 -236q0 -123 47 -235q45 -108 127 -193q78 -80 189 -130q108 -48 231 -48q124 0 232 48q110 49 188 130q82 85 127 193q47 112 47 235zM78 729q0 155 58 289t159 235t235 159t289 58
t289 -58t235 -159t159 -235q59 -136 59 -289t-59 -289q-58 -134 -159 -235t-235 -159t-289 -58t-289 58t-235 159t-159 235t-58 289z" />
    <glyph glyph-name="ordfeminine" unicode="&#xaa;" horiz-adv-x="491"
d="M315 903h-4q-29 -37 -53 -53q-28 -19 -76 -19q-19 0 -51 7q-26 6 -49 24q-23 19 -38 51q-15 33 -15 86q0 106 47 162t174 56q9 0 29 -2q18 -2 36 -3v50q0 31 -15 52t-52 21q-27 0 -49 -13q-23 -14 -27 -48h-135q6 91 61 143q61 53 150 53q43 0 82 -12q35 -11 68 -37
q29 -23 47 -61t18 -86v-434h-148v63zM315 1108q-7 1 -19 3q-6 1 -17 1q-46 0 -74 -19q-29 -20 -29 -71q0 -59 66 -59q35 0 54 20t19 49v76z" />
    <glyph glyph-name="guillemotleft" unicode="&#xab;" horiz-adv-x="872"
d="M815 772l-207 -205l207 -205v-208l-416 413l416 414v-209zM436 772l-207 -205l207 -205v-208l-416 413l416 414v-209z" />
    <glyph glyph-name="logicalnot" unicode="&#xac;" horiz-adv-x="1228"
d="M969 641h-873v164h1037v-574h-164v410z" />
    <glyph glyph-name="uni00AD" unicode="&#xad;" horiz-adv-x="796"
d="M90 672h617v-209h-617v209z" />
    <glyph glyph-name="registered" unicode="&#xae;" horiz-adv-x="1638"
d="M674 795h153q103 0 151 29q50 30 50 100q0 60 -44 87q-43 27 -114 27h-196v-243zM539 1161h327q297 0 297 -243q0 -64 -17 -105q-18 -43 -48 -72q-31 -29 -71 -44q-41 -15 -85 -21l248 -379h-164l-248 375h-104v-375h-135v864zM1413 729q0 124 -47 236q-45 107 -127 192
q-78 81 -188 130q-108 48 -232 48q-123 0 -231 -48q-111 -50 -189 -130q-82 -85 -127 -192q-47 -112 -47 -236q0 -123 47 -235q45 -108 127 -193q78 -80 189 -130q108 -48 231 -48q124 0 232 48q110 49 188 130q82 85 127 193q47 112 47 235zM78 729q0 155 58 289t159 235
t235 159t289 58t289 -58t235 -159t159 -235q59 -136 59 -289t-59 -289q-58 -134 -159 -235t-235 -159t-289 -58t-289 58t-235 159t-159 235t-58 289z" />
    <glyph glyph-name="macron" unicode="&#xaf;" horiz-adv-x="380"
d="M-90 1366h561v-123h-561v123z" />
    <glyph glyph-name="degree" unicode="&#xb0;" horiz-adv-x="532"
d="M141 1241q0 -53 36 -89t89 -36t89 36t36 89t-36 89t-89 36t-89 -36t-36 -89zM37 1241q0 47 18 89t49 73t73 49t89 18t89 -18t73 -49t49 -73q19 -44 19 -89t-19 -89q-18 -42 -49 -73t-73 -49t-89 -18t-89 18t-73 49t-49 73t-18 89z" />
    <glyph glyph-name="plusminus" unicode="&#xb1;" horiz-adv-x="1228"
d="M532 543h-436v164h436v329h164v-329h437v-164h-437v-330h-164v330zM96 164h1037v-164h-1037v164z" />
    <glyph glyph-name="two.superior" unicode="&#xb2;" horiz-adv-x="495"
d="M23 1270q0 45 17 80t48 63q29 26 72 42q41 15 88 15q48 0 86 -14q43 -16 72 -39q32 -26 49 -58q18 -35 18 -75v-67q0 -54 -12 -87q-11 -30 -35 -67l-195 -328h242v-147h-450v110l262 435q8 14 17 37q7 18 7 42v48q0 31 -20 47t-43 16q-24 0 -41 -16q-19 -17 -19 -47v-64
h-163v74z" />
    <glyph glyph-name="three.superior" unicode="&#xb3;" horiz-adv-x="495"
d="M205 1106q61 0 81 13q22 14 23 57v86q0 27 -16 44t-45 17q-32 0 -47 -21t-15 -40v-54h-163v66q0 86 63 141q62 55 166 55q60 0 98 -17q44 -20 69 -47q28 -31 41 -67t13 -73v-84q0 -47 -14 -79q-15 -35 -70 -63q49 -28 67 -63q17 -33 17 -86v-105q0 -36 -12 -74
q-12 -37 -40 -67q-27 -29 -71 -47t-102 -18q-43 0 -82 10q-42 11 -73 33q-32 23 -51 59q-19 37 -19 90v70h163v-47q0 -31 17 -50q17 -18 45 -18q26 0 44 19q17 18 17 42v107q0 47 -20 61q-21 15 -84 15v135z" />
    <glyph glyph-name="acute" unicode="&#xb4;" horiz-adv-x="380"
d="M242 1464h221l-270 -288h-136z" />
    <glyph glyph-name="mu" unicode="&#xb5;" horiz-adv-x="796"
d="M711 0h-209v100h-4q-17 -33 -32 -50q-20 -23 -34 -36q-33 -26 -70 -26q-43 0 -63 20h-4v-428h-209v1458h209v-719q0 -57 27 -90q26 -32 75 -32q60 0 82 36q23 38 23 107v698h209v-1038z" />
    <glyph glyph-name="paragraph" unicode="&#xb6;" horiz-adv-x="909"
d="M373 684q-68 0 -131 30q-66 31 -114 81q-52 54 -81 120q-31 71 -31 150q0 101 33 174q33 74 91 123t141 73q79 23 182 23h352v-1878h-147v1774h-148v-1774h-147v1104z" />
    <glyph glyph-name="periodcentered" unicode="&#xb7;" horiz-adv-x="380"
d="M59 610q0 53 39 92t92 39q54 0 93 -39t39 -92t-39 -92t-93 -39q-53 0 -92 39t-39 92z" />
    <glyph glyph-name="cedilla" unicode="&#xb8;" horiz-adv-x="380"
d="M174 0h94l-94 -123q22 2 32 3t32 1q53 0 84 -14q33 -15 53 -38q21 -24 28 -50q9 -32 9 -51q0 -49 -24 -85q-26 -38 -60 -59q-38 -22 -81 -33q-41 -10 -87 -10q-60 0 -111 15q-74 22 -80 24l35 86q33 -12 66 -21q37 -10 67 -10q10 0 36 4q19 3 36 12q16 9 28 25
q11 15 11 43q0 36 -29 57t-63 21q-45 0 -80 -14l-35 41z" />
    <glyph glyph-name="one.superior" unicode="&#xb9;" horiz-adv-x="495"
d="M190 1311l-135 -88v147l135 88h164v-870h-164v723z" />
    <glyph glyph-name="ordmasculine" unicode="&#xba;" horiz-adv-x="491"
d="M37 1268q0 89 56 145q57 57 153 57q95 0 152 -57t57 -145v-234q0 -88 -57 -145q-58 -58 -152 -58q-95 0 -153 58q-56 56 -56 145v234zM184 1036q0 -69 62 -69q61 0 61 69v228q0 71 -61 71q-62 0 -62 -71v-228z" />
    <glyph glyph-name="guillemotright" unicode="&#xbb;" horiz-adv-x="872"
d="M436 362l207 205l-207 205v209l416 -414l-416 -413v208zM57 362l207 205l-207 205v209l416 -414l-416 -413v208z" />
    <glyph glyph-name="onequarter" unicode="&#xbc;" horiz-adv-x="1136"
d="M932 1493h123l-895 -1528h-123zM158 1311l-135 -88v147l135 88h164v-870h-164v723zM889 127h-293v127l201 620h164l-193 -612h121v236h164v-236h61v-135h-61v-127h-164v127z" />
    <glyph glyph-name="onehalf" unicode="&#xbd;" horiz-adv-x="1136"
d="M932 1493h123l-895 -1528h-123zM158 1311l-135 -88v147l135 88h164v-870h-164v723zM659 111l267 434q7 12 17 38q7 18 7 42v47q0 31 -20 47t-43 16q-28 0 -45 -16q-19 -17 -19 -47v-64h-164v74q0 86 66 143q67 58 164 58q45 0 86 -15q43 -16 72 -39q32 -26 49 -58
q18 -35 18 -75v-67q0 -53 -12 -86q-12 -32 -35 -68l-195 -328h242v-147h-455v111z" />
    <glyph glyph-name="threequarters" unicode="&#xbe;" horiz-adv-x="1136"
d="M971 1493h123l-895 -1528h-123zM205 1106q61 0 81 13q22 14 23 57v86q0 27 -16 44t-45 17q-32 0 -47 -21t-15 -40v-54h-163v66q0 86 63 141q62 55 166 55q60 0 98 -17q44 -20 69 -47q28 -31 41 -67t13 -73v-84q0 -47 -14 -79q-15 -35 -70 -63q49 -28 67 -63
q17 -33 17 -86v-105q0 -36 -12 -74q-12 -37 -40 -67q-27 -29 -71 -47t-102 -18q-43 0 -82 10q-42 11 -73 33q-32 23 -51 59q-19 37 -19 90v70h163v-47q0 -31 17 -50q17 -18 45 -18q26 0 44 19q17 18 17 42v107q0 47 -20 61q-21 15 -84 15v135zM889 127h-293v127l201 620h164
l-193 -612h121v236h164v-236h61v-135h-61v-127h-164v127z" />
    <glyph glyph-name="questiondown" unicode="&#xbf;"
d="M692 -121q0 -65 -24 -122q-23 -55 -68 -98q-46 -44 -100 -67q-57 -24 -123 -24q-73 0 -138 31q-63 30 -104 86q-20 26 -34 52q-13 25 -21 53q-8 29 -11 63q-3 35 -3 81q0 64 1 89q2 43 5 63q5 29 10 46q6 21 16 36l142 242q10 16 24 50q10 24 10 54v164h209v-191
q0 -48 -14 -86q-15 -42 -37 -79l-131 -213q-16 -27 -21 -58q-6 -40 -6 -61v-109q0 -44 30 -74t73 -30q39 0 72 26q34 27 34 78v119h209v-121zM483 829h-209v209h209v-209z" />
    <glyph glyph-name="Agrave" unicode="&#xc0;" horiz-adv-x="833"
d="M418 1038h-4l-103 -528h209zM330 1458h174l325 -1458h-208l-62 313h-285l-61 -313h-209zM551 1524h-135l-271 288h222z" />
    <glyph glyph-name="Aacute" unicode="&#xc1;" horiz-adv-x="833"
d="M418 1038h-4l-103 -528h209zM330 1458h174l325 -1458h-208l-62 313h-285l-61 -313h-209zM469 1812h221l-270 -288h-135z" />
    <glyph glyph-name="Acircumflex" unicode="&#xc2;" horiz-adv-x="833"
d="M418 1038h-4l-103 -528h209zM330 1458h174l325 -1458h-208l-62 313h-285l-61 -313h-209zM322 1812h192l201 -288h-160l-137 194l-137 -194h-160z" />
    <glyph glyph-name="Atilde" unicode="&#xc3;" horiz-adv-x="833"
d="M418 1038h-4l-103 -528h209zM330 1458h174l325 -1458h-208l-62 313h-285l-61 -313h-209zM766 1780q-12 -53 -25 -88q-16 -43 -39 -72q-25 -31 -59 -49q-36 -19 -84 -19q-21 0 -66 13q-42 12 -87 27q-6 2 -84 29q-38 13 -58 13q-43 0 -65 -25q-24 -27 -25 -67h-104
q7 46 23 88q15 41 40 72q24 30 60 49q34 18 83 18q27 0 67 -13q12 -4 26.5 -9t32.5 -11t28 -9q49 -16 85 -27q41 -12 56 -12q44 0 66 25q24 27 25 67h104z" />
    <glyph glyph-name="Adieresis" unicode="&#xc4;" horiz-adv-x="833"
d="M418 1038h-4l-103 -528h209zM330 1458h174l325 -1458h-208l-62 313h-285l-61 -313h-209zM160 1757h184v-209h-184v209zM492 1757h184v-209h-184v209z" />
    <glyph glyph-name="Aring" unicode="&#xc5;" horiz-adv-x="833"
d="M418 1038h-4l-103 -528h209zM330 1458h174l325 -1458h-208l-62 313h-285l-61 -313h-209zM209 1710q0 45 16 81q17 39 45 67t67 45q36 16 81 16t81 -16q37 -17 66 -45q28 -28 45 -67t17 -81t-17 -81q-16 -37 -45 -66t-66 -45q-39 -17 -81 -17t-81 17t-67 45q-28 29 -45 66
q-16 36 -16 81zM293 1710q0 -53 36 -89t89 -36t89 36t36 89t-36 89t-89 36t-89 -36t-36 -89z" />
    <glyph glyph-name="AE" unicode="&#xc6;" horiz-adv-x="1251"
d="M418 1458h796v-196h-413v-428h360v-197h-360v-428h413v-209h-622v313h-287l-80 -313h-221zM592 1262h-49l-189 -752h238v752z" />
    <glyph glyph-name="Ccedilla" unicode="&#xc7;" horiz-adv-x="833"
d="M393 -12q-59 5 -110 24q-58 22 -100 61q-43 40 -70 103t-27 156v803q0 69 25 133q24 61 69 106q46 46 108 71t138 25q73 0 133 -25q62 -26 107 -72t70 -110q26 -66 26 -141v-82h-209v70q0 61 -35 107q-34 45 -94 45q-77 0 -103 -49t-26 -121v-746q0 -61 28 -106
q27 -43 99 -43q22 0 44 7q25 8 43 23q20 17 32 45t12 72v72h209v-90q0 -60 -21 -115q-22 -57 -56 -100q-37 -46 -86 -76q-52 -31 -110 -43l-88 -115q22 2 32 3t32 1q53 0 84 -14q33 -15 53 -38q22 -25 29 -50q8 -29 8 -51q0 -49 -24 -85q-26 -38 -60 -59q-37 -22 -81 -33
q-41 -10 -87 -10q-60 0 -111 15q-69 20 -79 24l34 86q33 -12 66 -21q37 -10 68 -10q9 0 35 4q20 3 36 12t28 25q11 15 11 43q0 36 -29 57q-28 21 -63 21q-45 0 -80 -14l-35 41z" />
    <glyph glyph-name="Egrave" unicode="&#xc8;"
d="M98 1458h623v-196h-414v-428h361v-197h-361v-428h414v-209h-623v1458zM532 1524h-135l-270 288h221z" />
    <glyph glyph-name="Eacute" unicode="&#xc9;"
d="M98 1458h623v-196h-414v-428h361v-197h-361v-428h414v-209h-623v1458zM451 1812h221l-271 -288h-135z" />
    <glyph glyph-name="Ecircumflex" unicode="&#xca;"
d="M98 1458h623v-196h-414v-428h361v-197h-361v-428h414v-209h-623v1458zM303 1812h193l200 -288h-159l-138 194l-137 -194h-160z" />
    <glyph glyph-name="Edieresis" unicode="&#xcb;"
d="M98 1458h623v-196h-414v-428h361v-197h-361v-428h414v-209h-623v1458zM141 1757h185v-209h-185v209zM473 1757h184v-209h-184v209z" />
    <glyph glyph-name="Igrave" unicode="&#xcc;" horiz-adv-x="417"
d="M104 1458h209v-1458h-209v1458zM342 1524h-135l-270 288h221z" />
    <glyph glyph-name="Iacute" unicode="&#xcd;" horiz-adv-x="417"
d="M104 1458h209v-1458h-209v1458zM260 1812h221l-270 -288h-135z" />
    <glyph glyph-name="Icircumflex" unicode="&#xce;" horiz-adv-x="417"
d="M104 1458h209v-1458h-209v1458zM113 1812h192l201 -288h-160l-137 194l-137 -194h-160z" />
    <glyph glyph-name="Idieresis" unicode="&#xcf;" horiz-adv-x="417"
d="M104 1458h209v-1458h-209v1458zM-49 1757h184v-209h-184v209zM283 1757h184v-209h-184v209z" />
    <glyph glyph-name="Eth" unicode="&#xd0;" horiz-adv-x="872"
d="M307 852h144v-135h-144v-520h96q87 0 125 44q37 43 37 138v702q0 86 -35 133q-36 48 -127 48h-96v-410zM98 717h-98v135h98v606h310q178 0 272 -99q94 -98 94 -278v-682q0 -205 -99 -302q-98 -97 -286 -97h-291v717z" />
    <glyph glyph-name="Ntilde" unicode="&#xd1;" horiz-adv-x="909"
d="M90 1458h201l315 -878h4v878h209v-1458h-196l-320 877h-4v-877h-209v1458zM803 1780q-12 -53 -25 -88q-16 -43 -39 -72q-25 -31 -59 -49q-36 -19 -84 -19q-22 0 -67 13q-42 12 -87 27q-6 2 -84 29q-38 13 -57 13q-43 0 -65 -25q-24 -27 -25 -67h-105q7 41 24 88
q15 41 40 72t59 49q35 18 84 18q27 0 67 -13l87 -29q49 -16 85 -27q41 -12 56 -12q44 0 66 25t24 67h105z" />
    <glyph glyph-name="Ograve" unicode="&#xd2;" horiz-adv-x="872"
d="M86 1114q0 86 31 156q29 65 81 111q52 45 112 67q62 22 126 22t126 -22t113 -67q52 -46 81 -111q30 -68 30 -156v-770q0 -91 -30 -157q-29 -65 -81 -110q-51 -45 -113 -67t-126 -22t-126 22q-60 22 -112 67t-81 110q-31 68 -31 157v770zM295 344q0 -76 42 -112
q41 -35 99 -35q59 0 100 35q42 36 42 112v770q0 76 -42 112t-100 36q-57 0 -99 -36t-42 -112v-770zM569 1524h-135l-270 288h221z" />
    <glyph glyph-name="Oacute" unicode="&#xd3;" horiz-adv-x="872"
d="M86 1114q0 86 31 156q29 65 81 111q52 45 112 67q62 22 126 22t126 -22t113 -67q52 -46 81 -111q30 -68 30 -156v-770q0 -91 -30 -157q-29 -65 -81 -110q-51 -45 -113 -67t-126 -22t-126 22q-60 22 -112 67t-81 110q-31 68 -31 157v770zM295 344q0 -76 42 -112
q41 -35 99 -35q59 0 100 35q42 36 42 112v770q0 76 -42 112t-100 36q-57 0 -99 -36t-42 -112v-770zM487 1812h222l-271 -288h-135z" />
    <glyph glyph-name="Ocircumflex" unicode="&#xd4;" horiz-adv-x="872"
d="M86 1114q0 86 31 156q29 65 81 111q52 45 112 67q62 22 126 22t126 -22t113 -67q52 -46 81 -111q30 -68 30 -156v-770q0 -91 -30 -157q-29 -65 -81 -110q-51 -45 -113 -67t-126 -22t-126 22q-60 22 -112 67t-81 110q-31 68 -31 157v770zM295 344q0 -76 42 -112
q41 -35 99 -35q59 0 100 35q42 36 42 112v770q0 76 -42 112t-100 36q-57 0 -99 -36t-42 -112v-770zM340 1812h192l201 -288h-160l-137 194l-137 -194h-160z" />
    <glyph glyph-name="Otilde" unicode="&#xd5;" horiz-adv-x="872"
d="M86 1114q0 86 31 156q29 65 81 111q52 45 112 67q62 22 126 22t126 -22t113 -67q52 -46 81 -111q30 -68 30 -156v-770q0 -91 -30 -157q-29 -65 -81 -110q-51 -45 -113 -67t-126 -22t-126 22q-60 22 -112 67t-81 110q-31 68 -31 157v770zM295 344q0 -76 42 -112
q41 -35 99 -35q59 0 100 35q42 36 42 112v770q0 76 -42 112t-100 36q-57 0 -99 -36t-42 -112v-770zM784 1780q-13 -59 -24 -88q-16 -43 -39 -72q-25 -31 -59 -49q-36 -19 -84 -19q-22 0 -67 13q-42 12 -87 27q-6 2 -84 29q-38 13 -57 13q-44 0 -66 -25t-24 -67h-105
q7 41 24 88q15 41 40 72t59 49q35 18 84 18q26 0 66 -13q28 -9 88 -29q49 -16 85 -27q40 -12 56 -12q43 0 65 25q24 27 25 67h104z" />
    <glyph glyph-name="Odieresis" unicode="&#xd6;" horiz-adv-x="872"
d="M86 1114q0 86 31 156q29 65 81 111q52 45 112 67q62 22 126 22t126 -22t113 -67q52 -46 81 -111q30 -68 30 -156v-770q0 -91 -30 -157q-29 -65 -81 -110q-51 -45 -113 -67t-126 -22t-126 22q-60 22 -112 67t-81 110q-31 68 -31 157v770zM295 344q0 -76 42 -112
q41 -35 99 -35q59 0 100 35q42 36 42 112v770q0 76 -42 112t-100 36q-57 0 -99 -36t-42 -112v-770zM178 1757h184v-209h-184v209zM510 1757h184v-209h-184v209z" />
    <glyph glyph-name="multiply" unicode="&#xd7;" horiz-adv-x="1228"
d="M500 518l-363 363l117 114l360 -360l363 360l115 -114l-361 -363l361 -360l-115 -117l-363 362l-360 -362l-117 117z" />
    <glyph glyph-name="Oslash" unicode="&#xd8;" horiz-adv-x="872"
d="M123 178q-37 68 -37 166v770q0 86 31 156q29 65 81 111q52 45 112 67q62 22 126 22q72 0 136 -26q68 -28 120 -80l82 172l78 -45l-102 -211q14 -29 26 -75q10 -40 10 -91v-770q0 -91 -30 -157q-29 -65 -81 -110q-51 -45 -113 -67t-126 -22q-74 0 -139 26q-67 27 -117 80
l-82 -172l-78 45zM578 1124q-4 72 -47 105q-42 33 -95 33q-57 0 -99 -36t-42 -112v-577h4zM295 334q5 -70 45 -104q39 -33 96 -33q59 0 100 35q42 36 42 112v576h-5z" />
    <glyph glyph-name="Ugrave" unicode="&#xd9;" horiz-adv-x="872"
d="M774 328q0 -74 -26 -133q-27 -62 -73 -108t-108 -73q-59 -26 -131 -26t-131 26q-61 27 -107 73t-73 108t-27 133v1130h209v-1110q0 -78 37 -115q36 -36 92 -36t92 36q37 37 37 115v1110h209v-1130zM569 1524h-135l-270 288h221z" />
    <glyph glyph-name="Uacute" unicode="&#xda;" horiz-adv-x="872"
d="M774 328q0 -74 -26 -133q-27 -62 -73 -108t-108 -73q-59 -26 -131 -26t-131 26q-61 27 -107 73t-73 108t-27 133v1130h209v-1110q0 -78 37 -115q36 -36 92 -36t92 36q37 37 37 115v1110h209v-1130zM487 1812h222l-271 -288h-135z" />
    <glyph glyph-name="Ucircumflex" unicode="&#xdb;" horiz-adv-x="872"
d="M774 328q0 -74 -26 -133q-27 -62 -73 -108t-108 -73q-59 -26 -131 -26t-131 26q-61 27 -107 73t-73 108t-27 133v1130h209v-1110q0 -78 37 -115q36 -36 92 -36t92 36q37 37 37 115v1110h209v-1130zM340 1812h192l201 -288h-160l-137 194l-137 -194h-160z" />
    <glyph glyph-name="Udieresis" unicode="&#xdc;" horiz-adv-x="872"
d="M774 328q0 -74 -26 -133q-27 -62 -73 -108t-108 -73q-59 -26 -131 -26t-131 26q-61 27 -107 73t-73 108t-27 133v1130h209v-1110q0 -78 37 -115q36 -36 92 -36t92 36q37 37 37 115v1110h209v-1130zM178 1757h184v-209h-184v209zM510 1757h184v-209h-184v209z" />
    <glyph glyph-name="Yacute" unicode="&#xdd;" horiz-adv-x="794"
d="M293 616l-287 842h221l168 -579h4l168 579h221l-286 -842v-616h-209v616zM449 1812h221l-271 -288h-135z" />
    <glyph glyph-name="Thorn" unicode="&#xde;" horiz-adv-x="833"
d="M98 1458h209v-254h105q86 0 151 -22q66 -23 119 -80q53 -58 74 -134q20 -73 20 -208q0 -102 -11 -165q-12 -71 -48 -128q-43 -72 -115 -112q-71 -40 -188 -40h-107v-315h-209v1458zM307 512h101q64 0 98 18q33 17 51 51q17 33 20 76q3 45 3 101q0 50 -3 97q-3 43 -19 80
q-14 33 -48 53t-94 20h-109v-496z" />
    <glyph glyph-name="germandbls" unicode="&#xdf;" horiz-adv-x="796"
d="M86 1130q0 68 18 130q17 59 57 108q39 49 96 75q59 27 138 27q90 0 149 -28q58 -28 97 -79q36 -47 53 -119q17 -71 17 -146q0 -50 -5 -92q-4 -35 -19 -66q-14 -30 -37 -50q-32 -28 -60 -46q60 -33 90 -82q31 -51 31 -127v-361q0 -94 -26 -152q-24 -54 -67 -86
q-40 -30 -95 -39q-54 -9 -111 -9v196q44 0 67 20t23 85v389q0 40 -24 54q-23 13 -66 13v185q47 0 68 15q22 16 22 65v164q0 42 -20 71t-79 29q-60 0 -84 -39t-24 -141v-1094h-209v1130z" />
    <glyph glyph-name="agrave" unicode="&#xe0;"
d="M481 106h-4q-41 -58 -83 -88t-118 -30q-39 0 -75 11q-40 12 -73 41q-34 29 -55 84q-22 57 -22 140q0 89 15 155q15 67 52 110q39 45 101 66q63 21 162 21q15 0 45 -2q3 0 22.5 -1.5l32.5 -2.5v109q0 54 -22 88q-23 35 -82 35q-41 0 -75 -27q-33 -26 -44 -78h-203
q11 142 95 226q39 39 98 64q57 24 129 24q66 0 123 -21q58 -21 99 -61q43 -41 67 -103q24 -61 24 -143v-723h-209v106zM481 446q-40 7 -57 7q-67 0 -116 -32q-48 -31 -48 -116q0 -58 29 -96q28 -37 80 -37q53 0 83 35q29 33 29 98v141zM512 1176h-135l-271 288h222z" />
    <glyph glyph-name="aacute" unicode="&#xe1;"
d="M481 106h-4q-41 -58 -83 -88t-118 -30q-39 0 -75 11q-40 12 -73 41q-34 29 -55 84q-22 57 -22 140q0 89 15 155q15 67 52 110q39 45 101 66q63 21 162 21q15 0 45 -2q3 0 22.5 -1.5l32.5 -2.5v109q0 54 -22 88q-23 35 -82 35q-41 0 -75 -27q-33 -26 -44 -78h-203
q11 142 95 226q39 39 98 64q57 24 129 24q66 0 123 -21q58 -21 99 -61q43 -41 67 -103q24 -61 24 -143v-723h-209v106zM481 446q-40 7 -57 7q-67 0 -116 -32q-48 -31 -48 -116q0 -58 29 -96q28 -37 80 -37q53 0 83 35q29 33 29 98v141zM430 1464h221l-270 -288h-135z" />
    <glyph glyph-name="acircumflex" unicode="&#xe2;"
d="M481 106h-4q-41 -58 -83 -88t-118 -30q-39 0 -75 11q-40 12 -73 41q-34 29 -55 84q-22 57 -22 140q0 89 15 155q15 67 52 110q39 45 101 66q63 21 162 21q15 0 45 -2q3 0 22.5 -1.5l32.5 -2.5v109q0 54 -22 88q-23 35 -82 35q-41 0 -75 -27q-33 -26 -44 -78h-203
q11 142 95 226q39 39 98 64q57 24 129 24q66 0 123 -21q58 -21 99 -61q43 -41 67 -103q24 -61 24 -143v-723h-209v106zM481 446q-40 7 -57 7q-67 0 -116 -32q-48 -31 -48 -116q0 -58 29 -96q28 -37 80 -37q53 0 83 35q29 33 29 98v141zM283 1464h192l201 -288h-160l-137 194
l-137 -194h-160z" />
    <glyph glyph-name="atilde" unicode="&#xe3;"
d="M481 106h-4q-41 -58 -83 -88t-118 -30q-39 0 -75 11q-40 12 -73 41q-34 29 -55 84q-22 57 -22 140q0 89 15 155q15 67 52 110q39 45 101 66q63 21 162 21q15 0 45 -2q3 0 22.5 -1.5l32.5 -2.5v109q0 54 -22 88q-23 35 -82 35q-41 0 -75 -27q-33 -26 -44 -78h-203
q11 142 95 226q39 39 98 64q57 24 129 24q66 0 123 -21q58 -21 99 -61q43 -41 67 -103q24 -61 24 -143v-723h-209v106zM481 446q-40 7 -57 7q-67 0 -116 -32q-48 -31 -48 -116q0 -58 29 -96q28 -37 80 -37q53 0 83 35q29 33 29 98v141zM727 1432q-12 -55 -25 -89
q-16 -44 -38 -71q-24 -30 -60 -49t-84 -19q-21 0 -66 13q-42 12 -87 27q-6 2 -84 29q-38 13 -58 13q-43 0 -65 -25q-24 -27 -25 -67h-104q7 46 23 88q15 41 40 72q24 30 60 49q34 18 84 18q26 0 66 -13q12 -4 26.5 -9t32.5 -11t28 -9q49 -16 85 -27q44 -13 56 -13
q43 0 66 26q24 27 25 67h104z" />
    <glyph glyph-name="adieresis" unicode="&#xe4;"
d="M481 106h-4q-41 -58 -83 -88t-118 -30q-39 0 -75 11q-40 12 -73 41q-34 29 -55 84q-22 57 -22 140q0 89 15 155q15 67 52 110q39 45 101 66q63 21 162 21q15 0 45 -2q3 0 22.5 -1.5l32.5 -2.5v109q0 54 -22 88q-23 35 -82 35q-41 0 -75 -27q-33 -26 -44 -78h-203
q11 142 95 226q39 39 98 64q57 24 129 24q66 0 123 -21q58 -21 99 -61q43 -41 67 -103q24 -61 24 -143v-723h-209v106zM481 446q-40 7 -57 7q-67 0 -116 -32q-48 -31 -48 -116q0 -58 29 -96q28 -37 80 -37q53 0 83 35q29 33 29 98v141zM121 1409h184v-209h-184v209z
M453 1409h184v-209h-184v209z" />
    <glyph glyph-name="aring" unicode="&#xe5;"
d="M481 106h-4q-41 -58 -83 -88t-118 -30q-39 0 -75 11q-40 12 -73 41q-34 29 -55 84q-22 57 -22 140q0 89 15 155q15 67 52 110q39 45 101 66q63 21 162 21q15 0 45 -2q3 0 22.5 -1.5l32.5 -2.5v109q0 54 -22 88q-23 35 -82 35q-41 0 -75 -27q-33 -26 -44 -78h-203
q11 142 95 226q39 39 98 64q57 24 129 24q66 0 123 -21q58 -21 99 -61q43 -41 67 -103q24 -61 24 -143v-723h-209v106zM481 446q-40 7 -57 7q-67 0 -116 -32q-48 -31 -48 -116q0 -58 29 -96q28 -37 80 -37q53 0 83 35q29 33 29 98v141zM170 1352q0 45 16 81q16 37 45 66
q28 28 67 45t81 17t81 -17q38 -16 66 -45t45 -66q17 -39 17 -81t-17 -81t-45 -67t-66 -45q-36 -16 -81 -16t-81 16q-39 17 -67 45t-45 67q-16 36 -16 81zM254 1352q0 -53 36 -89t89 -36t89 36t36 89t-36 89t-89 36t-89 -36t-36 -89z" />
    <glyph glyph-name="ae" unicode="&#xe6;" horiz-adv-x="1171"
d="M690 604h205v119q0 58 -28 89q-27 30 -74 30q-48 0 -75 -30q-28 -31 -28 -89v-119zM1104 440h-414v-141q0 -48 28 -76q26 -26 75 -26q59 0 78 34t24 70h209q0 -67 -23 -125q-23 -59 -64 -98q-45 -43 -99 -66q-57 -24 -125 -24q-105 -1 -173 43q-71 46 -100 104
q-37 -73 -101 -110t-143 -37q-39 0 -75 11q-40 12 -73 41q-34 29 -55 84q-22 57 -22 140q0 89 15 155q15 67 52 110q39 45 101 66q63 21 162 21q15 0 45 -2q3 0 22.5 -1.5l32.5 -2.5v109q0 54 -22 88q-23 35 -82 35q-41 0 -75 -27q-33 -26 -44 -78h-203q4 69 29 127
q24 57 66 99q39 39 98 64q57 24 129 24q65 0 116 -20t91 -54q39 35 94 54q57 20 115 20q69 0 130 -25q55 -22 98 -69q40 -43 61 -103q22 -63 22 -127v-287zM481 446q-40 7 -57 7q-67 0 -116 -32q-48 -31 -48 -116q0 -58 29 -96q28 -37 80 -37q53 0 83 35q29 33 29 98v141z
" />
    <glyph glyph-name="ccedilla" unicode="&#xe7;"
d="M358 -8q-78 10 -134 49q-57 39 -87 96q-24 43 -31 94q-8 56 -8 117v342q0 61 8 117q7 51 31 94q38 69 107 109q70 41 166 41q69 0 130 -25q55 -22 98 -69q40 -43 61 -105q22 -64 22 -133h-209q0 62 -28 93q-27 30 -74 30q-48 0 -75 -30q-28 -31 -28 -89v-424
q0 -48 28 -76q26 -26 75 -26q59 0 78 34t24 70h209q0 -63 -22 -123q-21 -57 -62 -98q-73 -76 -186 -88l-89 -115q22 2 32 3t32 1q53 0 84 -14q33 -15 53 -38q22 -25 29 -50q8 -29 8 -51q0 -50 -23 -85q-25 -37 -61 -59q-38 -22 -81 -33q-41 -10 -87 -10q-59 0 -110 15
q-74 22 -80 24l35 86q36 -13 65 -21q37 -10 68 -10q9 0 35 4q19 3 36 12q16 9 28 25q11 15 11 43q0 36 -28 57q-29 21 -64 21q-45 0 -80 -14l-35 41z" />
    <glyph glyph-name="egrave" unicode="&#xe8;"
d="M276 440v-141q0 -48 28 -76q26 -26 75 -26q60 0 79 34q18 32 23 70h209q0 -66 -21 -123q-20 -55 -63 -98q-41 -44 -98 -68t-129 -24q-96 0 -166 41t-107 108q-22 40 -30 94q-8 56 -8 117v342q0 61 8 117q8 54 30 94q38 69 107 109q70 41 166 41q69 0 130 -25
q55 -22 98 -69q42 -45 62 -103q21 -60 21 -127v-287h-414zM276 604h205v119q0 59 -27 89t-75 30t-75 -30q-28 -31 -28 -89v-119zM512 1176h-135l-271 288h222z" />
    <glyph glyph-name="eacute" unicode="&#xe9;"
d="M276 440v-141q0 -48 28 -76q26 -26 75 -26q60 0 79 34q18 32 23 70h209q0 -66 -21 -123q-20 -55 -63 -98q-41 -44 -98 -68t-129 -24q-96 0 -166 41t-107 108q-22 40 -30 94q-8 56 -8 117v342q0 61 8 117q8 54 30 94q38 69 107 109q70 41 166 41q69 0 130 -25
q55 -22 98 -69q42 -45 62 -103q21 -60 21 -127v-287h-414zM276 604h205v119q0 59 -27 89t-75 30t-75 -30q-28 -31 -28 -89v-119zM430 1464h221l-270 -288h-135z" />
    <glyph glyph-name="ecircumflex" unicode="&#xea;"
d="M276 440v-141q0 -48 28 -76q26 -26 75 -26q60 0 79 34q18 32 23 70h209q0 -66 -21 -123q-20 -55 -63 -98q-41 -44 -98 -68t-129 -24q-96 0 -166 41t-107 108q-22 40 -30 94q-8 56 -8 117v342q0 61 8 117q8 54 30 94q38 69 107 109q70 41 166 41q69 0 130 -25
q55 -22 98 -69q42 -45 62 -103q21 -60 21 -127v-287h-414zM276 604h205v119q0 59 -27 89t-75 30t-75 -30q-28 -31 -28 -89v-119zM283 1464h192l201 -288h-160l-137 194l-137 -194h-160z" />
    <glyph glyph-name="edieresis" unicode="&#xeb;"
d="M276 440v-141q0 -48 28 -76q26 -26 75 -26q60 0 79 34q18 32 23 70h209q0 -66 -21 -123q-20 -55 -63 -98q-41 -44 -98 -68t-129 -24q-96 0 -166 41t-107 108q-22 40 -30 94q-8 56 -8 117v342q0 61 8 117q8 54 30 94q38 69 107 109q70 41 166 41q69 0 130 -25
q55 -22 98 -69q42 -45 62 -103q21 -60 21 -127v-287h-414zM276 604h205v119q0 59 -27 89t-75 30t-75 -30q-28 -31 -28 -89v-119zM121 1409h184v-209h-184v209zM453 1409h184v-209h-184v209z" />
    <glyph glyph-name="igrave" unicode="&#xec;" horiz-adv-x="380"
d="M86 1038h209v-1038h-209v1038zM324 1176h-136l-270 288h221z" />
    <glyph glyph-name="iacute" unicode="&#xed;" horiz-adv-x="380"
d="M86 1038h209v-1038h-209v1038zM242 1464h221l-270 -288h-136z" />
    <glyph glyph-name="icircumflex" unicode="&#xee;" horiz-adv-x="380"
d="M86 1038h209v-1038h-209v1038zM94 1464h193l200 -288h-159l-138 194l-137 -194h-159z" />
    <glyph glyph-name="idieresis" unicode="&#xef;" horiz-adv-x="380"
d="M86 1038h209v-1038h-209v1038zM-68 1409h185v-209h-185v209zM264 1409h185v-209h-185v209z" />
    <glyph glyph-name="eth" unicode="&#xf0;"
d="M276 315q0 -58 28 -89q26 -29 75 -29t75 29q27 30 27 89v408q0 59 -27 89t-75 30t-75 -30q-28 -31 -28 -89v-408zM317 1311q-61 50 -157 88l170 90q95 -33 164 -96l139 65l57 -82l-129 -59q41 -53 64 -110q24 -58 39 -122q13 -55 20 -127q6 -63 6 -122v-488
q0 -61 -8 -117q-7 -51 -31 -94q-38 -68 -106 -108q-70 -41 -166 -41t-166 41t-107 108q-22 40 -30 94q-8 56 -8 117v342q0 61 8 117q8 54 30 94q38 69 107 109q70 41 166 41q27 0 55 -14t43 -33l4 4q-16 70 -39 128q-21 54 -57 99l-152 -72l-57 82z" />
    <glyph glyph-name="ntilde" unicode="&#xf1;" horiz-adv-x="796"
d="M86 1038h209v-100h4q33 50 79 81q47 32 118 32q37 0 77 -14t70 -44q31 -31 49 -79q19 -51 19 -117v-797h-209v719q0 57 -27 90t-76 33q-60 0 -82 -37t-22 -107v-698h-209v1038zM748 1432q-12 -55 -25 -89q-15 -41 -39 -71q-25 -31 -59 -49q-36 -19 -84 -19q-21 0 -67 13
q-42 12 -87 27q-6 2 -84 29q-38 13 -57 13q-44 0 -66 -25t-24 -67h-105q7 41 24 88q15 41 40 72t59 49t84 18q27 0 67 -13q12 -4 26.5 -9t32.5 -11t28 -9q49 -16 85 -27q44 -13 56 -13q42 0 65 26q24 27 25 67h105z" />
    <glyph glyph-name="ograve" unicode="&#xf2;"
d="M68 690q0 61 8 117q8 54 30 94q38 69 107 109q70 41 166 41t166 -41q67 -40 106 -109q24 -43 31 -94q8 -56 8 -117v-342q0 -61 -8 -117q-7 -51 -31 -94q-38 -68 -106 -108q-70 -41 -166 -41t-166 41t-107 108q-22 40 -30 94q-8 56 -8 117v342zM276 315q0 -58 28 -89
q26 -29 75 -29t75 29q27 30 27 89v408q0 59 -27 89t-75 30t-75 -30q-28 -31 -28 -89v-408zM512 1176h-135l-271 288h222z" />
    <glyph glyph-name="oacute" unicode="&#xf3;"
d="M68 690q0 61 8 117q8 54 30 94q38 69 107 109q70 41 166 41t166 -41q67 -40 106 -109q24 -43 31 -94q8 -56 8 -117v-342q0 -61 -8 -117q-7 -51 -31 -94q-38 -68 -106 -108q-70 -41 -166 -41t-166 41t-107 108q-22 40 -30 94q-8 56 -8 117v342zM276 315q0 -58 28 -89
q26 -29 75 -29t75 29q27 30 27 89v408q0 59 -27 89t-75 30t-75 -30q-28 -31 -28 -89v-408zM430 1464h221l-270 -288h-135z" />
    <glyph glyph-name="ocircumflex" unicode="&#xf4;"
d="M68 690q0 61 8 117q8 54 30 94q38 69 107 109q70 41 166 41t166 -41q67 -40 106 -109q24 -43 31 -94q8 -56 8 -117v-342q0 -61 -8 -117q-7 -51 -31 -94q-38 -68 -106 -108q-70 -41 -166 -41t-166 41t-107 108q-22 40 -30 94q-8 56 -8 117v342zM276 315q0 -58 28 -89
q26 -29 75 -29t75 29q27 30 27 89v408q0 59 -27 89t-75 30t-75 -30q-28 -31 -28 -89v-408zM283 1464h192l201 -288h-160l-137 194l-137 -194h-160z" />
    <glyph glyph-name="otilde" unicode="&#xf5;"
d="M68 690q0 61 8 117q8 54 30 94q38 69 107 109q70 41 166 41t166 -41q67 -40 106 -109q24 -43 31 -94q8 -56 8 -117v-342q0 -61 -8 -117q-7 -51 -31 -94q-38 -68 -106 -108q-70 -41 -166 -41t-166 41t-107 108q-22 40 -30 94q-8 56 -8 117v342zM276 315q0 -58 28 -89
q26 -29 75 -29t75 29q27 30 27 89v408q0 59 -27 89t-75 30t-75 -30q-28 -31 -28 -89v-408zM727 1432q-12 -55 -25 -89q-16 -44 -38 -71q-24 -30 -60 -49t-84 -19q-21 0 -66 13q-42 12 -87 27q-6 2 -84 29q-38 13 -58 13q-43 0 -65 -25q-24 -27 -25 -67h-104q7 46 23 88
q15 41 40 72q24 30 60 49q34 18 84 18q26 0 66 -13q12 -4 26.5 -9t32.5 -11t28 -9q49 -16 85 -27q44 -13 56 -13q43 0 66 26q24 27 25 67h104z" />
    <glyph glyph-name="odieresis" unicode="&#xf6;"
d="M68 690q0 61 8 117q8 54 30 94q38 69 107 109q70 41 166 41t166 -41q67 -40 106 -109q24 -43 31 -94q8 -56 8 -117v-342q0 -61 -8 -117q-7 -51 -31 -94q-38 -68 -106 -108q-70 -41 -166 -41t-166 41t-107 108q-22 40 -30 94q-8 56 -8 117v342zM276 315q0 -58 28 -89
q26 -29 75 -29t75 29q27 30 27 89v408q0 59 -27 89t-75 30t-75 -30q-28 -31 -28 -89v-408zM121 1409h184v-209h-184v209zM453 1409h184v-209h-184v209z" />
    <glyph glyph-name="divide" unicode="&#xf7;" horiz-adv-x="1228"
d="M96 600h1037v-164h-1037v164zM483 94q0 53 39 92t92 39q54 0 93 -39q38 -38 38 -92t-38 -92q-39 -39 -93 -39q-53 0 -92 39t-39 92zM483 942q0 53 39 92t92 39q54 0 93 -39q38 -38 38 -92t-38 -92q-39 -39 -93 -39q-53 0 -92 39t-39 92z" />
    <glyph glyph-name="oslash" unicode="&#xf8;"
d="M475 762q-12 80 -96 80q-48 0 -75 -30q-28 -31 -28 -89v-295h5zM283 276q12 -79 96 -79q49 0 75 29q27 30 27 89v295h-4zM109 145q-41 84 -41 179v391q0 73 21 135q21 61 62 105q43 46 98 70q60 26 130 26q134 0 217 -86l84 141l70 -43l-101 -170q41 -84 41 -178v-391
q0 -74 -21 -136q-21 -61 -62 -105q-43 -46 -98 -70q-57 -25 -130 -25q-134 0 -217 86l-84 -142l-70 43z" />
    <glyph glyph-name="ugrave" unicode="&#xf9;" horiz-adv-x="796"
d="M711 0h-209v100h-4q-33 -50 -79 -81t-118 -31q-40 0 -78 13t-69 44q-33 33 -50 79q-18 48 -18 118v796h209v-719q0 -57 27 -90q26 -32 75 -32q60 0 82 36q23 38 23 107v698h209v-1038zM532 1176h-135l-270 288h221z" />
    <glyph glyph-name="uacute" unicode="&#xfa;" horiz-adv-x="796"
d="M711 0h-209v100h-4q-33 -50 -79 -81t-118 -31q-40 0 -78 13t-69 44q-33 33 -50 79q-18 48 -18 118v796h209v-719q0 -57 27 -90q26 -32 75 -32q60 0 82 36q23 38 23 107v698h209v-1038zM451 1464h221l-271 -288h-135z" />
    <glyph glyph-name="ucircumflex" unicode="&#xfb;" horiz-adv-x="796"
d="M711 0h-209v100h-4q-33 -50 -79 -81t-118 -31q-40 0 -78 13t-69 44q-33 33 -50 79q-18 48 -18 118v796h209v-719q0 -57 27 -90q26 -32 75 -32q60 0 82 36q23 38 23 107v698h209v-1038zM303 1464h193l200 -288h-159l-138 194l-137 -194h-160z" />
    <glyph glyph-name="udieresis" unicode="&#xfc;" horiz-adv-x="796"
d="M711 0h-209v100h-4q-33 -50 -79 -81t-118 -31q-40 0 -78 13t-69 44q-33 33 -50 79q-18 48 -18 118v796h209v-719q0 -57 27 -90q26 -32 75 -32q60 0 82 36q23 38 23 107v698h209v-1038zM141 1409h185v-209h-185v209zM473 1409h184v-209h-184v209z" />
    <glyph glyph-name="yacute" unicode="&#xfd;" horiz-adv-x="720"
d="M219 1038l143 -647h5l141 647h215l-299 -1218q-17 -71 -46 -116q-31 -47 -69 -74q-39 -27 -83 -39q-40 -11 -91 -11h-57v197h47q29 0 53 8q21 7 40 36q16 24 32 82q15 54 33 144l-285 991h221zM412 1464h221l-271 -288h-135z" />
    <glyph glyph-name="thorn" unicode="&#xfe;" horiz-adv-x="796"
d="M86 1458h209v-514q41 47 80 76q42 31 119 31q130 0 182 -99q19 -36 26 -86q9 -61 9 -137v-395q0 -114 -6 -166q-6 -53 -27 -86q-28 -41 -69 -68q-40 -26 -117 -26q-62 0 -110 27t-83 79h-4v-514h-209v1878zM502 700q0 62 -25 103q-24 39 -78 39q-47 0 -75 -36
q-29 -37 -29 -93v-404q0 -49 30 -81q30 -31 74 -31q61 0 81 36q22 39 22 86v381z" />
    <glyph glyph-name="ydieresis" unicode="&#xff;" horiz-adv-x="720"
d="M219 1038l143 -647h5l141 647h215l-299 -1218q-17 -71 -46 -116q-31 -47 -69 -74q-39 -27 -83 -39q-40 -11 -91 -11h-57v197h47q29 0 53 8q21 7 40 36q16 24 32 82q15 54 33 144l-285 991h221zM102 1409h185v-209h-185v209zM434 1409h184v-209h-184v209z" />
    <glyph glyph-name="dotlessi" unicode="&#x131;" horiz-adv-x="380"
d="M86 1038h209v-1038h-209v1038z" />
    <glyph glyph-name="Lslash" unicode="&#x141;"
d="M98 543l-98 -78v184l98 78v731h209v-567l246 196v-184l-246 -196v-498h414v-209h-623v543z" />
    <glyph glyph-name="lslash" unicode="&#x142;" horiz-adv-x="380"
d="M74 631l-103 -90v147l103 90v680h209v-495l102 88v-148l-102 -88v-522q0 -60 21 -81q22 -22 81 -28v-196q-76 0 -130 11q-58 12 -98 43q-41 32 -62 89t-21 148v352z" />
    <glyph glyph-name="OE" unicode="&#x152;" horiz-adv-x="1249"
d="M590 1135q0 60 -38 106q-37 45 -103 45q-67 0 -104 -45q-38 -46 -38 -106v-811q0 -61 38 -107q37 -45 104 -45q65 0 103 45q38 46 38 107v811zM1212 1262h-413v-428h360v-197h-360v-428h413v-209h-622v70h-4q-28 -35 -75 -59q-46 -23 -99 -23q-74 0 -132 27
q-57 26 -99 76q-40 47 -61 111q-22 66 -22 132v790q0 66 22 132q22 65 61 110q42 48 99 76t132 28q68 0 109 -25q42 -25 65 -61h4v74h622v-196z" />
    <glyph glyph-name="oe" unicode="&#x153;" horiz-adv-x="1171"
d="M68 690q0 61 8 117q7 51 31 94q39 69 106 109q70 41 166 41q67 0 119 -21q56 -22 88 -49q39 33 94 52q52 18 113 18q69 0 130 -25q55 -22 98 -69q40 -43 61 -103q22 -63 22 -127v-287h-414v-141q0 -48 28 -76q26 -26 75 -26q59 0 78 34t24 70h209q0 -63 -22 -123
q-21 -57 -62 -98q-41 -44 -98 -68t-129 -24q-61 0 -119 17q-63 19 -96 54q-33 -32 -88 -52q-51 -19 -111 -19q-96 0 -166 41t-107 108q-22 40 -30 94q-8 56 -8 117v342zM690 604h205v119q0 58 -28 89q-27 30 -74 30q-48 0 -75 -30q-28 -31 -28 -89v-119zM276 315
q0 -58 28 -89q26 -29 75 -29t75 29q27 30 27 89v408q0 59 -27 89t-75 30t-75 -30q-28 -31 -28 -89v-408z" />
    <glyph glyph-name="Scaron" unicode="&#x160;" horiz-adv-x="831"
d="M774 1038h-209v47q0 72 -34 124q-35 53 -113 53q-43 0 -71 -17q-29 -17 -43 -42q-15 -26 -21 -59q-7 -40 -7 -71q0 -33 4 -73q3 -30 15 -51q12 -22 36 -38q21 -15 64 -32l160 -64q72 -28 113 -62t66 -84q25 -49 32 -111q8 -67 8 -142q0 -92 -18 -171q-17 -75 -61 -135
q-42 -57 -111 -90q-67 -32 -170 -32q-78 0 -142 26q-66 27 -112 73q-49 49 -75 110q-28 65 -28 137v78h209v-66q0 -57 34 -103t114 -46q53 0 83 15q29 15 45 43q14 25 19 69q4 36 4 90q0 61 -4 94q-5 38 -17 59q-13 22 -37 37q-22 13 -63 31l-149 61q-134 55 -181 147
q-46 91 -46 228q0 84 22 156q22 73 67 127t111 85t158 31q79 0 142 -28t111 -76q47 -47 71 -105q24 -59 24 -120v-103zM512 1524h-193l-200 288h160l137 -194l137 194h160z" />
    <glyph glyph-name="scaron" unicode="&#x161;" horiz-adv-x="720"
d="M465 748q-1 51 -34 79q-32 27 -73 27q-48 0 -75 -32t-27 -72q0 -32 14 -57q16 -28 74 -50l123 -49q118 -45 161 -123q44 -79 44 -170q0 -65 -24 -122q-23 -55 -64 -99q-40 -43 -99 -68q-57 -24 -125 -24q-63 0 -116 20q-56 21 -98 60q-41 38 -68 97q-28 60 -29 136h197
q6 -44 29 -80q24 -37 83 -37q45 0 81 30t36 83q0 45 -22 74q-23 31 -82 53l-101 37q-97 37 -154 109t-57 178q0 62 25 121q23 55 67 97q41 39 97 62q57 23 119 23q63 0 117 -24q58 -26 94 -63q38 -40 61 -97q23 -58 23 -119h-197zM457 1176h-193l-201 288h160l137 -194
l138 194h159z" />
    <glyph glyph-name="Ydieresis" unicode="&#x178;" horiz-adv-x="794"
d="M293 616l-287 842h221l168 -579h4l168 579h221l-286 -842v-616h-209v616zM139 1757h185v-209h-185v209zM471 1757h184v-209h-184v209z" />
    <glyph glyph-name="Zcaron" unicode="&#x17d;" horiz-adv-x="681"
d="M31 184l393 1078h-373v196h600v-166l-401 -1095h401v-197h-620v184zM438 1524h-192l-201 288h160l137 -194l137 194h160z" />
    <glyph glyph-name="zcaron" unicode="&#x17e;" horiz-adv-x="645"
d="M35 166l338 688h-312v184h549v-166l-338 -675h338v-197h-575v166zM420 1176h-193l-200 288h159l138 -194l137 194h160z" />
    <glyph glyph-name="florin" unicode="&#x192;" horiz-adv-x="761"
d="M115 924h172l47 262q16 85 44 143q27 56 64 87t82 43q41 11 95 11q19 0 59 -2q33 -2 72 -6l-29 -188q-6 1 -19.5 3.5t-20.5 4.5q-17 4 -40 4q-53 0 -80 -32q-26 -30 -41 -119l-37 -211h158l-27 -164h-159l-146 -815q-15 -81 -36 -145q-22 -68 -58 -113q-39 -48 -92 -74
q-56 -27 -137 -27q-38 0 -59 4q-10 2 -50 13l23 192q38 -12 82 -12q52 0 81 33t39 90l154 854h-164z" />
    <glyph glyph-name="circumflex" unicode="&#x2c6;" horiz-adv-x="380"
d="M94 1464h193l200 -288h-159l-138 194l-137 -194h-159z" />
    <glyph glyph-name="caron" unicode="&#x2c7;" horiz-adv-x="380"
d="M287 1176h-193l-200 288h159l137 -194l138 194h159z" />
    <glyph glyph-name="uni02C9" unicode="&#x2c9;" horiz-adv-x="380"
d="M-90 1366h561v-123h-561v123z" />
    <glyph glyph-name="breve" unicode="&#x2d8;" horiz-adv-x="380"
d="M506 1464q-43 -278 -316 -278q-272 0 -315 278h105q5 -35 15 -56q12 -28 36 -50t63 -36q38 -13 96 -13q59 0 97 13q39 14 63 36t36 50q10 21 15 56h105z" />
    <glyph glyph-name="dotaccent" unicode="&#x2d9;" horiz-adv-x="380"
d="M98 1409h185v-209h-185v209z" />
    <glyph glyph-name="ring" unicode="&#x2da;" horiz-adv-x="380"
d="M-18 1352q0 45 16 81q16 37 45 66q28 28 67 45t80 17q42 0 81 -17t67 -45q28 -29 45 -66q16 -36 16 -81t-16 -81q-17 -39 -45 -67t-67 -45q-36 -16 -81 -16q-44 0 -80 16q-39 17 -67 45t-45 67q-16 36 -16 81zM66 1352q0 -54 35 -89q36 -36 89 -36q54 0 90 36
q35 35 35 89t-35 89q-36 36 -90 36q-53 0 -89 -36q-35 -35 -35 -89z" />
    <glyph glyph-name="ogonek" unicode="&#x2db;" horiz-adv-x="380"
d="M399 -414q-22 -12 -81 -30q-50 -15 -117 -15q-86 0 -145 50q-58 49 -58 137q0 52 14 88q15 40 41 70q29 34 61 59q37 29 74 55h105q-62 -60 -96 -127q-35 -68 -35 -131q0 -50 29 -78q31 -29 71 -29q34 0 61 8q28 8 48 19z" />
    <glyph glyph-name="tilde" unicode="&#x2dc;" horiz-adv-x="380"
d="M539 1432q-12 -55 -25 -89q-15 -41 -39 -71q-25 -31 -59 -49q-36 -19 -84 -19q-22 0 -67 13q-42 12 -87 27q-6 2 -84 29q-38 13 -57 13q-44 0 -66 -25t-24 -67h-105q7 41 24 88q15 41 40 72t59 49q35 18 84 18q27 0 67 -13l87 -29q49 -16 85 -27q44 -13 56 -13
q43 0 66 26q22 25 24 67h105z" />
    <glyph glyph-name="hungarumlaut" unicode="&#x2dd;" horiz-adv-x="380"
d="M74 1464h221l-270 -288h-136zM406 1464h221l-271 -288h-135z" />
    <glyph glyph-name="uni03A9" unicode="&#x3a9;" horiz-adv-x="931"
d="M225 188q-64 107 -110 261q-47 158 -47 348q0 143 28 261q28 117 82 207q53 87 128 137q76 50 167 50q102 0 173 -56q75 -59 120 -148q48 -95 70 -205q22 -111 22 -226q0 -102 -13 -190q-13 -91 -36 -174q-23 -84 -51 -149q-26 -59 -60 -116v-6h181v-182h-353v129
q51 66 91 227q40 160 40 404q0 98 -10 184q-11 92 -33 160q-23 71 -59 111q-38 42 -88 42q-51 0 -87 -36q-40 -40 -63 -105q-23 -64 -37 -160q-14 -95 -14 -202q0 -111 12 -210q13 -110 29 -182q17 -79 42 -141q23 -58 48 -92v-129h-352v182h180v6z" />
    <glyph glyph-name="uni03BC" unicode="&#x3bc;" horiz-adv-x="796"
d="M711 0h-209v100h-4q-17 -33 -32 -50q-20 -23 -34 -36q-33 -26 -70 -26q-43 0 -63 20h-4v-428h-209v1458h209v-719q0 -57 27 -90q26 -32 75 -32q60 0 82 36q23 38 23 107v698h209v-1038z" />
    <glyph glyph-name="pi" unicode="&#x3c0;" horiz-adv-x="864"
d="M731 881v-619q0 -106 4 -159q4 -59 15 -103h-187q-26 64 -26 264v617h-181q-11 -192 -11 -194q-10 -155 -18 -234q-14 -140 -29 -241q-20 -134 -38 -212h-186q20 91 37 214q11 82 27 238q10 105 19 231q7 104 7 198q-55 0 -79 -4q-26 -4 -46 -11l-25 148q31 26 88 43
q60 18 152 18h584l-13 -194h-94z" />
    <glyph glyph-name="endash" unicode="&#x2013;" horiz-adv-x="1024"
d="M0 666h1024v-197h-1024v197z" />
    <glyph glyph-name="emdash" unicode="&#x2014;" horiz-adv-x="2048"
d="M0 666h2048v-197h-2048v197z" />
    <glyph glyph-name="quoteleft" unicode="&#x2018;" horiz-adv-x="380"
d="M295 1098h-209v209l209 151v-360z" />
    <glyph glyph-name="quoteright" unicode="&#x2019;" horiz-adv-x="380"
d="M86 1458h209v-209l-209 -151v360z" />
    <glyph glyph-name="quotesinglbase" unicode="&#x201a;" horiz-adv-x="380"
d="M86 209h209v-209l-209 -152v361z" />
    <glyph glyph-name="quotedblleft" unicode="&#x201c;" horiz-adv-x="569"
d="M532 1098h-208v209l208 151v-360zM246 1098h-209v209l209 151v-360z" />
    <glyph glyph-name="quotedblright" unicode="&#x201d;" horiz-adv-x="569"
d="M37 1458h209v-209l-209 -151v360zM324 1458h208v-209l-208 -151v360z" />
    <glyph glyph-name="quotedblbase" unicode="&#x201e;" horiz-adv-x="569"
d="M37 209h209v-209l-209 -152v361zM324 209h208v-209l-208 -152v361z" />
    <glyph glyph-name="dagger" unicode="&#x2020;"
d="M287 811h-275v184h275v463h184v-463h274v-184h-274v-1231h-184v1231z" />
    <glyph glyph-name="daggerdbl" unicode="&#x2021;"
d="M287 1458h184v-446h274v-164h-274v-658h274v-163h-274v-447h-184v447h-275v163h275v658h-275v164h275v446z" />
    <glyph glyph-name="bullet" unicode="&#x2022;" horiz-adv-x="1024"
d="M147 729q0 75 29 142t78 116t116 78t142 29t142 -29t116 -78t78 -116t29 -142t-29 -142t-78 -116t-116 -78q-65 -28 -142 -28t-142 28q-67 29 -116 78t-78 116t-29 142z" />
    <glyph glyph-name="ellipsis" unicode="&#x2026;" horiz-adv-x="2048"
d="M238 209h208v-209h-208v209zM920 209h208v-209h-208v209zM1602 209h208v-209h-208v209z" />
    <glyph glyph-name="perthousand" unicode="&#x2030;" horiz-adv-x="1099"
d="M856 164q0 -23 15 -38t36 -15t36 15t15 38v104q0 23 -15 38q-16 16 -36 16t-36 -16q-15 -15 -15 -38v-104zM733 276q0 78 47 123q46 45 127 45t127 -45q47 -45 47 -123v-133q0 -68 -47 -112q-46 -43 -127 -43t-127 43q-47 44 -47 112v133zM141 1190q0 -22 16 -38
q15 -15 36 -15q20 0 35 15q16 16 16 38v104q0 22 -16 38t-35 16q-20 0 -36 -16t-16 -38v-104zM18 1303q0 76 48 122q47 45 127 45q79 0 126 -45q48 -46 48 -122v-134q0 -67 -48 -112q-46 -43 -126 -43q-81 0 -127 43q-48 45 -48 112v134zM461 164q0 -23 15 -38t36 -15t36 15
t15 38v104q0 23 -15 38q-16 16 -36 16t-36 -16q-15 -15 -15 -38v-104zM338 276q0 78 47 123q46 45 127 45q80 0 127 -45t47 -123v-133q0 -68 -47 -112q-46 -43 -127 -43t-127 43q-47 44 -47 112v133zM541 1458h135l-500 -1458h-135z" />
    <glyph glyph-name="guilsinglleft" unicode="&#x2039;" horiz-adv-x="493"
d="M436 772l-207 -205l207 -205v-208l-416 413l416 414v-209z" />
    <glyph glyph-name="guilsinglright" unicode="&#x203a;" horiz-adv-x="493"
d="M57 362l207 205l-207 205v209l416 -414l-416 -413v208z" />
    <glyph glyph-name="fraction" unicode="&#x2044;" horiz-adv-x="342"
d="M557 1493h123l-895 -1528h-123z" />
    <glyph glyph-name="Euro" unicode="&#x20ac;" horiz-adv-x="761"
d="M698 1227q-22 22 -58 37q-34 14 -97 14q-86 0 -131 -77q-46 -77 -56 -240h293l-41 -160h-262v-68v-69h227l-41 -162h-176q10 -172 58 -249q46 -75 129 -75q62 0 97 13t58 36v-198q-20 -16 -67 -28q-43 -11 -127 -11q-149 0 -237 118q-89 119 -111 394h-123l41 162h65
q-2 20 -2 32v37v32q0 12 2 36h-106l41 160h78q21 260 109 384q87 123 245 123q74 0 123 -15q46 -14 69 -32v-194z" />
    <glyph glyph-name="afii61289" unicode="&#x2113;" horiz-adv-x="733"
d="M713 233q-50 -125 -124 -182q-71 -55 -159 -55q-80 0 -132 30q-54 31 -84 78q-32 51 -44 115q-12 66 -12 139v31q-6 -6 -19 -19.5t-20 -20.5t-20.5 -21t-20.5 -21l-45 115q10 10 66 72q36 40 59 71v543q0 125 21 215q21 88 59 148q40 62 86 87q50 27 102 27q95 0 142 -92
q46 -91 46 -248q0 -176 -71 -349t-195 -341v-123q0 -147 32 -209q31 -61 91 -61q54 0 94 49q45 56 72 106zM348 766q73 123 117 251q45 131 45 247q0 84 -17 119q-18 38 -59 38q-17 0 -32 -16q-15 -17 -27 -57q-13 -43 -20 -110q-7 -64 -7 -171v-301z" />
    <glyph glyph-name="trademark" unicode="&#x2122;" horiz-adv-x="2027"
d="M340 1323h-260v135h668v-135h-261v-709h-147v709zM1649 1323h-4l-281 -709h-84l-279 709h-4v-709h-147v844h233l240 -616l240 616h233v-844h-147v709z" />
    <glyph glyph-name="Omega" unicode="&#x2126;" horiz-adv-x="931"
d="M225 188q-64 107 -110 261q-47 158 -47 348q0 143 28 261q28 117 82 207q53 87 128 137q76 50 167 50q102 0 173 -56q75 -59 120 -148q48 -95 70 -205q22 -111 22 -226q0 -102 -13 -190q-13 -91 -36 -174q-23 -84 -51 -149q-26 -59 -60 -116v-6h181v-182h-353v129
q51 66 91 227q40 160 40 404q0 98 -10 184q-11 92 -33 160q-23 71 -59 111q-38 42 -88 42q-51 0 -87 -36q-40 -40 -63 -105q-23 -64 -37 -160q-14 -95 -14 -202q0 -111 12 -210q13 -110 29 -182q17 -79 42 -141q23 -58 48 -92v-129h-352v182h180v6z" />
    <glyph glyph-name="estimated" unicode="&#x212e;" horiz-adv-x="1787"
d="M383 709q-10 0 -10 -9v-403q0 -27 16 -47q99 -100 227 -160q127 -59 277 -59q161 0 297 66q135 65 235 179h117q-111 -130 -280 -208q-170 -78 -371 -78q-171 0 -320 58t-261 158q-111 99 -176 233q-64 132 -64 288q0 155 64 290q63 134 176 236q111 101 261 159
q149 58 320 58q172 0 321 -58q151 -59 263 -159q113 -101 177 -236t64 -290v-18h-1333zM1413 1167q0 29 -18 47q-100 97 -227 154t-275 57q-151 0 -276 -59q-128 -60 -226 -158q-18 -18 -18 -51v-395q0 -14 10 -14h1022q8 0 8 14v405z" />
    <glyph glyph-name="partialdiff" unicode="&#x2202;" horiz-adv-x="839"
d="M111 1528q39 34 99 69q61 35 157 35q73 0 144 -41t126 -132q56 -92 90 -236q35 -148 35 -355q0 -434 -105 -651t-299 -217q-71 0 -124 37q-56 39 -92 101q-38 64 -57 150q-19 83 -19 181q0 130 27 232q26 99 73 171q46 70 103 107q58 37 120 37q73 0 116 -37
q45 -39 62 -74h2v60q0 95 -16 178q-17 87 -46 153q-31 69 -72 109q-43 41 -95 41q-58 0 -102 -30q-46 -31 -76 -66zM381 190q40 0 70 44q31 46 52 116q21 73 36 163q13 79 18 185q-13 49 -46 91q-36 45 -89 45q-37 0 -67 -32q-28 -29 -50 -85q-19 -48 -32 -122
q-11 -63 -11 -140q0 -121 30 -193t85 -72h4z" />
    <glyph glyph-name="Delta" unicode="&#x2206;" horiz-adv-x="923"
d="M45 131l311 1327h228l293 -1321v-137h-832v131zM680 176l-137 606q-7 43 -20 96q-4 17 -11 50t-11 49q-13 53 -21 95q-9 46 -15 81h-2q-10 -64 -35 -161q-26 -100 -41 -187l-147 -629h440z" />
    <glyph glyph-name="product" unicode="&#x220f;" horiz-adv-x="1050"
d="M870 1227v-1426h-198v1426h-295v-1426h-199v1426h-131v205h954v-205h-131z" />
    <glyph glyph-name="summation" unicode="&#x2211;" horiz-adv-x="800"
d="M43 -199v154l348 668l-340 651v158h692v-181h-440v-6l305 -575l-348 -652v-6h510v-211h-727z" />
    <glyph glyph-name="minus" unicode="&#x2212;" horiz-adv-x="1228"
d="M96 600h1037v-164h-1037v164z" />
    <glyph glyph-name="uni2215" unicode="&#x2215;" horiz-adv-x="342"
d="M557 1493h123l-895 -1528h-123z" />
    <glyph glyph-name="uni2219" unicode="&#x2219;" horiz-adv-x="380"
d="M59 610q0 53 39 92t92 39q54 0 93 -39t39 -92t-39 -92t-93 -39q-53 0 -92 39t-39 92z" />
    <glyph glyph-name="radical" unicode="&#x221a;" horiz-adv-x="899"
d="M567 -281h-159l-211 908l-111 -43l-31 129l269 104l131 -602q10 -56 18 -113q8 -61 12 -86l2 -2q4 29 9 89q5 68 14 118l244 1503h133z" />
    <glyph glyph-name="infinity" unicode="&#x221e;" horiz-adv-x="1300"
d="M1223 592q0 -69 -23 -124t-60 -92q-38 -38 -87 -59q-47 -20 -101 -20q-75 0 -145 38t-152 150q-66 -83 -138 -135q-73 -53 -175 -53q-56 0 -100 20q-46 21 -84 59t-59 91t-21 117q0 66 20 117q22 57 58 94q38 39 88 60q53 22 112 22q93 0 164 -51q67 -48 135 -136
q16 17 57 62q32 35 65 60q39 29 81 46q48 19 103 19t103 -21q51 -22 83 -57q34 -37 55 -89t21 -116v-2zM360 414q70 0 123 50q56 53 107 114q-18 25 -52 69q-25 32 -54 58q-26 23 -59 39q-34 16 -73 16q-75 0 -114 -51t-39 -127q0 -71 47 -120q47 -48 112 -48h2zM948 760
q-36 0 -71 -19q-31 -17 -63 -44q-28 -24 -53 -55q-27 -34 -44 -52q57 -70 66 -81q29 -33 57 -55q29 -23 54 -31q27 -9 62 -9q36 0 62 16t45 41t29 54t10 59q0 77 -41 127q-40 49 -111 49h-2z" />
    <glyph glyph-name="integral" unicode="&#x222b;" horiz-adv-x="669"
d="M584 1589q-9 5 -22 10t-27 5q-45 0 -74 -54q-26 -43 -33 -126q-8 -91 -8 -222q0 -124 3 -246q4 -159 7 -242q3 -84 7 -249q3 -128 3 -262q0 -160 -14 -254q-15 -101 -45 -164q-33 -71 -91 -101t-120 -30q-38 0 -68 8q-26 7 -45 19l29 163q2 -1 10.5 -4.5t13.5 -5.5
q14 -6 33 -6t36 10q18 10 30 33q16 33 25 110q10 83 10 214q0 137 -3 266q-2 92 -8 254q-3 81 -7 250q-3 125 -3 254q0 82 5 159q4 67 17 124q13 59 29 95q17 39 43 76q33 44 86 68t109 24q26 0 53 -5q21 -4 41 -13z" />
    <glyph glyph-name="approxequal" unicode="&#x2248;" horiz-adv-x="821"
d="M762 807q-28 -75 -82 -133q-53 -56 -125 -56q-39 0 -77 16q-34 14 -87 50q-39 28 -66 45q-26 16 -63 16q-51 0 -77 -39q-29 -44 -52 -88l-76 60q31 81 87 133q58 53 130 53q62 0 99 -23l65 -40q5 -3 30 -19.5t37 -23.5q32 -19 58 -19q43 0 70 37q24 33 53 90zM762 496
q-28 -77 -82 -134q-52 -55 -125 -55q-39 0 -77 16q-34 14 -87 50q-39 29 -66 45q-26 16 -63 16q-50 0 -78 -40t-51 -87l-76 58q29 81 87 134q56 52 130 52q59 0 99 -23q21 -12 65 -39q37 -23 68 -44q28 -19 57 -19q43 0 70 38q22 30 53 91z" />
    <glyph glyph-name="notequal" unicode="&#x2260;" horiz-adv-x="821"
d="M549 819h194v-127h-233l-90 -227h323v-125h-364l-70 -176l-94 31l57 145h-196v125h237l88 227h-325v127h366l70 178l94 -32z" />
    <glyph glyph-name="lessequal" unicode="&#x2264;" horiz-adv-x="821"
d="M84 616v138l653 395v-154l-540 -307v-4l540 -309v-154zM78 20v132h670v-132h-670z" />
    <glyph glyph-name="greaterequal" unicode="&#x2265;" horiz-adv-x="821"
d="M743 754v-136l-653 -397v154l539 309v4l-539 307v154zM80 20v132h668v-132h-668z" />
    <glyph glyph-name="lozenge" unicode="&#x25ca;" horiz-adv-x="897"
d="M526 -78h-170l-274 793l291 794h170l274 -794zM487 1169q-11 35 -18 75q-7 38 -12 71h-6l-14 -70q-10 -50 -17 -76l-156 -448l150 -471q9 -31 16 -74q7 -48 10 -61h11l5 30q5 28 7 38q2 9 7 36q3 19 7 27l158 465z" />
    <glyph glyph-name="nine.alt" unicode="&#xe000;" horiz-adv-x="761"
d="M70 1157q0 75 25 131q26 58 69 98q47 44 99 63q57 21 118 21t118 -21q52 -19 99 -63q43 -40 69 -98q25 -56 25 -131v-856q0 -75 -25 -131q-26 -58 -69 -98q-47 -44 -99 -63q-57 -21 -118 -21t-118 21q-52 19 -99 63q-43 40 -69 98q-25 56 -25 131h209q0 -46 28 -75
t74 -29t74 29t28 75v197q-53 -24 -94 -35q-45 -12 -98 -12q-58 0 -103 26t-73 68q-30 46 -37 86q-8 46 -8 106v420zM279 739q0 -47 30 -75q31 -29 72 -29t72 29q30 28 30 75v418q0 47 -30 76q-31 29 -72 29t-72 -29q-30 -29 -30 -76v-418z" />
    <glyph glyph-name="six.alt" unicode="&#xe001;" horiz-adv-x="761"
d="M70 1157q0 75 25 131q26 58 69 98q47 44 99 63q57 21 118 21t118 -21q52 -19 99 -63q43 -40 69 -98q25 -56 25 -131h-209q0 46 -28 75q-29 30 -74 30t-74 -30q-28 -29 -28 -75v-196q48 22 94 34q49 13 98 13q55 0 102 -27t74 -68q30 -46 37 -86q8 -46 8 -106v-420
q0 -75 -25 -131q-26 -58 -69 -98q-47 -44 -99 -63q-57 -21 -118 -21t-118 21q-52 19 -99 63q-43 40 -69 98q-25 56 -25 131v856zM279 301q0 -47 30 -76q29 -28 72 -28t72 28q30 29 30 76v418q0 47 -30 76q-29 28 -72 28t-72 -28q-30 -29 -30 -76v-418z" />
    <glyph glyph-name="f_i" unicode="&#xfb01;" horiz-adv-x="833"
d="M113 874h-103v164h103v142q0 77 22 128q21 49 61 86q36 34 86 49q48 15 99 15h96v-196h-94q-61 0 -61 -72v-152h155v-164h-155v-874h-209v874zM539 1038h209v-1038h-209v1038zM539 1458h209v-209h-209v209z" />
    <glyph glyph-name="f_l" unicode="&#xfb02;" horiz-adv-x="833"
d="M113 874h-103v164h103v142q0 77 22 128q21 49 61 86q36 34 86 49q48 15 99 15h96v-196h-94q-61 0 -61 -72v-152h155v-164h-155v-874h-209v874zM539 1458h209v-1165q0 -60 21 -81q22 -22 81 -28v-196q-76 0 -130 11q-58 12 -98 43q-41 32 -62 89t-21 148v1179z" />
    </font>
</defs>
</svg>
